<mxfile host="app.diagrams.net" agent="Mozilla/5.0 (Windows NT 10.0; Win64; x64) AppleWebKit/537.36 (KHTML, like Gecko) Chrome/136.0.0.0 Safari/537.36" version="27.0.9" pages="3">
  <diagram name="Halaman-1" id="DfbAdWdOBGx-AQYiQari">
    <mxGraphModel dx="1747" dy="1002" grid="1" gridSize="10" guides="1" tooltips="1" connect="1" arrows="1" fold="1" page="1" pageScale="1" pageWidth="1169" pageHeight="1654" math="0" shadow="0">
      <root>
        <mxCell id="0" />
        <mxCell id="1" parent="0" />
        <mxCell id="GuYKuh0SEshmyXuX4Fv7-2" style="edgeStyle=orthogonalEdgeStyle;rounded=0;orthogonalLoop=1;jettySize=auto;html=1;" edge="1" parent="1" source="GuYKuh0SEshmyXuX4Fv7-1" target="GuYKuh0SEshmyXuX4Fv7-3">
          <mxGeometry relative="1" as="geometry">
            <mxPoint x="585" y="149.9999999999999" as="targetPoint" />
          </mxGeometry>
        </mxCell>
        <mxCell id="GuYKuh0SEshmyXuX4Fv7-1" value="Start" style="ellipse;whiteSpace=wrap;html=1;" vertex="1" parent="1">
          <mxGeometry x="525" y="10" width="120" height="80" as="geometry" />
        </mxCell>
        <mxCell id="GuYKuh0SEshmyXuX4Fv7-4" style="edgeStyle=orthogonalEdgeStyle;rounded=0;orthogonalLoop=1;jettySize=auto;html=1;" edge="1" parent="1" source="GuYKuh0SEshmyXuX4Fv7-3" target="GuYKuh0SEshmyXuX4Fv7-5">
          <mxGeometry relative="1" as="geometry">
            <mxPoint x="585" y="270" as="targetPoint" />
          </mxGeometry>
        </mxCell>
        <mxCell id="GuYKuh0SEshmyXuX4Fv7-3" value="Menu Utama&lt;div&gt;1. Login&lt;/div&gt;&lt;div&gt;2. Registrasi&lt;/div&gt;&lt;div&gt;0. Keluar&lt;/div&gt;" style="shape=parallelogram;perimeter=parallelogramPerimeter;whiteSpace=wrap;html=1;fixedSize=1;" vertex="1" parent="1">
          <mxGeometry x="517.5" y="120" width="135" height="90" as="geometry" />
        </mxCell>
        <mxCell id="GuYKuh0SEshmyXuX4Fv7-6" style="edgeStyle=orthogonalEdgeStyle;rounded=0;orthogonalLoop=1;jettySize=auto;html=1;" edge="1" parent="1" source="GuYKuh0SEshmyXuX4Fv7-5" target="GuYKuh0SEshmyXuX4Fv7-7">
          <mxGeometry relative="1" as="geometry">
            <mxPoint x="584.5000000000002" y="370" as="targetPoint" />
          </mxGeometry>
        </mxCell>
        <mxCell id="GuYKuh0SEshmyXuX4Fv7-5" value="Input :&lt;div&gt;&quot;Pilih Menu 1,2,0&quot;&lt;/div&gt;" style="shape=parallelogram;perimeter=parallelogramPerimeter;whiteSpace=wrap;html=1;fixedSize=1;" vertex="1" parent="1">
          <mxGeometry x="522" y="240" width="125" height="70" as="geometry" />
        </mxCell>
        <mxCell id="GuYKuh0SEshmyXuX4Fv7-8" style="edgeStyle=orthogonalEdgeStyle;rounded=0;orthogonalLoop=1;jettySize=auto;html=1;" edge="1" parent="1" source="GuYKuh0SEshmyXuX4Fv7-7" target="GuYKuh0SEshmyXuX4Fv7-9">
          <mxGeometry relative="1" as="geometry">
            <mxPoint x="830" y="380" as="targetPoint" />
          </mxGeometry>
        </mxCell>
        <mxCell id="GuYKuh0SEshmyXuX4Fv7-10" style="edgeStyle=orthogonalEdgeStyle;rounded=0;orthogonalLoop=1;jettySize=auto;html=1;" edge="1" parent="1" source="GuYKuh0SEshmyXuX4Fv7-7" target="GuYKuh0SEshmyXuX4Fv7-11">
          <mxGeometry relative="1" as="geometry">
            <mxPoint x="420" y="380" as="targetPoint" />
          </mxGeometry>
        </mxCell>
        <mxCell id="GuYKuh0SEshmyXuX4Fv7-12" style="edgeStyle=orthogonalEdgeStyle;rounded=0;orthogonalLoop=1;jettySize=auto;html=1;" edge="1" parent="1" source="GuYKuh0SEshmyXuX4Fv7-7" target="GuYKuh0SEshmyXuX4Fv7-13">
          <mxGeometry relative="1" as="geometry">
            <mxPoint x="585.0000000000005" y="480" as="targetPoint" />
          </mxGeometry>
        </mxCell>
        <mxCell id="GuYKuh0SEshmyXuX4Fv7-7" value="IF = 1" style="rhombus;whiteSpace=wrap;html=1;" vertex="1" parent="1">
          <mxGeometry x="545.0000000000005" y="340" width="80" height="80" as="geometry" />
        </mxCell>
        <mxCell id="GuYKuh0SEshmyXuX4Fv7-29" style="edgeStyle=orthogonalEdgeStyle;rounded=0;orthogonalLoop=1;jettySize=auto;html=1;" edge="1" parent="1" source="GuYKuh0SEshmyXuX4Fv7-9" target="GuYKuh0SEshmyXuX4Fv7-30">
          <mxGeometry relative="1" as="geometry">
            <mxPoint x="911" y="470" as="targetPoint" />
          </mxGeometry>
        </mxCell>
        <mxCell id="GuYKuh0SEshmyXuX4Fv7-9" value="IF = 2" style="rhombus;whiteSpace=wrap;html=1;" vertex="1" parent="1">
          <mxGeometry x="871" y="340" width="80" height="80" as="geometry" />
        </mxCell>
        <mxCell id="GuYKuh0SEshmyXuX4Fv7-40" style="edgeStyle=orthogonalEdgeStyle;rounded=0;orthogonalLoop=1;jettySize=auto;html=1;" edge="1" parent="1" source="GuYKuh0SEshmyXuX4Fv7-11" target="GuYKuh0SEshmyXuX4Fv7-41">
          <mxGeometry relative="1" as="geometry">
            <mxPoint x="293" y="490" as="targetPoint" />
          </mxGeometry>
        </mxCell>
        <mxCell id="GuYKuh0SEshmyXuX4Fv7-11" value="If = 0" style="rhombus;whiteSpace=wrap;html=1;" vertex="1" parent="1">
          <mxGeometry x="253" y="340" width="80" height="80" as="geometry" />
        </mxCell>
        <mxCell id="GuYKuh0SEshmyXuX4Fv7-14" style="edgeStyle=orthogonalEdgeStyle;rounded=0;orthogonalLoop=1;jettySize=auto;html=1;" edge="1" parent="1" source="GuYKuh0SEshmyXuX4Fv7-13" target="GuYKuh0SEshmyXuX4Fv7-15">
          <mxGeometry relative="1" as="geometry">
            <mxPoint x="585.0000000000005" y="580" as="targetPoint" />
          </mxGeometry>
        </mxCell>
        <mxCell id="GuYKuh0SEshmyXuX4Fv7-13" value="Input :&lt;div&gt;&quot;Masukan&amp;nbsp;&lt;/div&gt;&lt;div&gt;Username&quot;&lt;/div&gt;" style="shape=parallelogram;perimeter=parallelogramPerimeter;whiteSpace=wrap;html=1;fixedSize=1;" vertex="1" parent="1">
          <mxGeometry x="525.0000000000005" y="460" width="120" height="60" as="geometry" />
        </mxCell>
        <mxCell id="GuYKuh0SEshmyXuX4Fv7-16" style="edgeStyle=orthogonalEdgeStyle;rounded=0;orthogonalLoop=1;jettySize=auto;html=1;" edge="1" parent="1" source="GuYKuh0SEshmyXuX4Fv7-15" target="GuYKuh0SEshmyXuX4Fv7-17">
          <mxGeometry relative="1" as="geometry">
            <mxPoint x="585.0000000000005" y="670" as="targetPoint" />
          </mxGeometry>
        </mxCell>
        <mxCell id="GuYKuh0SEshmyXuX4Fv7-15" value="Input :&lt;div&gt;Masukan&amp;nbsp;&lt;/div&gt;&lt;div&gt;Password&quot;&lt;/div&gt;" style="shape=parallelogram;perimeter=parallelogramPerimeter;whiteSpace=wrap;html=1;fixedSize=1;" vertex="1" parent="1">
          <mxGeometry x="525.0000000000005" y="560" width="120" height="60" as="geometry" />
        </mxCell>
        <mxCell id="GuYKuh0SEshmyXuX4Fv7-18" style="edgeStyle=orthogonalEdgeStyle;rounded=0;orthogonalLoop=1;jettySize=auto;html=1;" edge="1" parent="1" source="GuYKuh0SEshmyXuX4Fv7-17" target="GuYKuh0SEshmyXuX4Fv7-19">
          <mxGeometry relative="1" as="geometry">
            <mxPoint x="584.5" y="790" as="targetPoint" />
          </mxGeometry>
        </mxCell>
        <mxCell id="GuYKuh0SEshmyXuX4Fv7-17" value="Output :&lt;div&gt;&quot;Login Berhasil Sebagai&lt;/div&gt;&lt;div&gt;Admin/User&quot;&lt;/div&gt;" style="shape=parallelogram;perimeter=parallelogramPerimeter;whiteSpace=wrap;html=1;fixedSize=1;" vertex="1" parent="1">
          <mxGeometry x="522" y="660" width="125" height="70" as="geometry" />
        </mxCell>
        <mxCell id="GuYKuh0SEshmyXuX4Fv7-20" style="edgeStyle=orthogonalEdgeStyle;rounded=0;orthogonalLoop=1;jettySize=auto;html=1;" edge="1" parent="1" source="GuYKuh0SEshmyXuX4Fv7-19" target="GuYKuh0SEshmyXuX4Fv7-23">
          <mxGeometry relative="1" as="geometry">
            <mxPoint x="740" y="910" as="targetPoint" />
          </mxGeometry>
        </mxCell>
        <mxCell id="GuYKuh0SEshmyXuX4Fv7-21" style="edgeStyle=orthogonalEdgeStyle;rounded=0;orthogonalLoop=1;jettySize=auto;html=1;" edge="1" parent="1" source="GuYKuh0SEshmyXuX4Fv7-19" target="GuYKuh0SEshmyXuX4Fv7-24">
          <mxGeometry relative="1" as="geometry">
            <mxPoint x="460" y="910" as="targetPoint" />
          </mxGeometry>
        </mxCell>
        <mxCell id="GuYKuh0SEshmyXuX4Fv7-19" value="Login" style="rhombus;whiteSpace=wrap;html=1;" vertex="1" parent="1">
          <mxGeometry x="545" y="770" width="80" height="80" as="geometry" />
        </mxCell>
        <mxCell id="GuYKuh0SEshmyXuX4Fv7-27" style="edgeStyle=orthogonalEdgeStyle;rounded=0;orthogonalLoop=1;jettySize=auto;html=1;" edge="1" parent="1" source="GuYKuh0SEshmyXuX4Fv7-23" target="GuYKuh0SEshmyXuX4Fv7-28">
          <mxGeometry relative="1" as="geometry">
            <mxPoint x="730" y="1010" as="targetPoint" />
          </mxGeometry>
        </mxCell>
        <mxCell id="GuYKuh0SEshmyXuX4Fv7-23" value="Status Admin" style="rounded=0;whiteSpace=wrap;html=1;" vertex="1" parent="1">
          <mxGeometry x="670" y="880" width="120" height="60" as="geometry" />
        </mxCell>
        <mxCell id="GuYKuh0SEshmyXuX4Fv7-25" style="edgeStyle=orthogonalEdgeStyle;rounded=0;orthogonalLoop=1;jettySize=auto;html=1;" edge="1" parent="1" source="GuYKuh0SEshmyXuX4Fv7-24" target="GuYKuh0SEshmyXuX4Fv7-26">
          <mxGeometry relative="1" as="geometry">
            <mxPoint x="460" y="1010" as="targetPoint" />
          </mxGeometry>
        </mxCell>
        <mxCell id="GuYKuh0SEshmyXuX4Fv7-24" value="Status User" style="rounded=0;whiteSpace=wrap;html=1;" vertex="1" parent="1">
          <mxGeometry x="400" y="880" width="120" height="60" as="geometry" />
        </mxCell>
        <mxCell id="GuYKuh0SEshmyXuX4Fv7-26" value="B" style="shape=offPageConnector;whiteSpace=wrap;html=1;fillColor=light-dark(#FFFFFF,#660066);" vertex="1" parent="1">
          <mxGeometry x="420" y="1000" width="80" height="80" as="geometry" />
        </mxCell>
        <mxCell id="GuYKuh0SEshmyXuX4Fv7-28" value="A" style="shape=offPageConnector;whiteSpace=wrap;html=1;fillColor=light-dark(#FFFFFF,#CCCC00);" vertex="1" parent="1">
          <mxGeometry x="690" y="1000" width="80" height="80" as="geometry" />
        </mxCell>
        <mxCell id="GuYKuh0SEshmyXuX4Fv7-31" style="edgeStyle=orthogonalEdgeStyle;rounded=0;orthogonalLoop=1;jettySize=auto;html=1;" edge="1" parent="1" source="GuYKuh0SEshmyXuX4Fv7-30" target="GuYKuh0SEshmyXuX4Fv7-32">
          <mxGeometry relative="1" as="geometry">
            <mxPoint x="911" y="580" as="targetPoint" />
          </mxGeometry>
        </mxCell>
        <mxCell id="GuYKuh0SEshmyXuX4Fv7-30" value="Input :&lt;div&gt;&quot;Masukan&lt;/div&gt;&lt;div&gt;Username Min&lt;/div&gt;&lt;div&gt;3 karakter&quot;&lt;/div&gt;" style="shape=parallelogram;perimeter=parallelogramPerimeter;whiteSpace=wrap;html=1;fixedSize=1;" vertex="1" parent="1">
          <mxGeometry x="846" y="460" width="130" height="70" as="geometry" />
        </mxCell>
        <mxCell id="GuYKuh0SEshmyXuX4Fv7-33" style="edgeStyle=orthogonalEdgeStyle;rounded=0;orthogonalLoop=1;jettySize=auto;html=1;" edge="1" parent="1" source="GuYKuh0SEshmyXuX4Fv7-32" target="GuYKuh0SEshmyXuX4Fv7-34">
          <mxGeometry relative="1" as="geometry">
            <mxPoint x="911" y="700" as="targetPoint" />
          </mxGeometry>
        </mxCell>
        <mxCell id="GuYKuh0SEshmyXuX4Fv7-32" value="Input :&lt;div&gt;&quot;Masukan&amp;nbsp;&lt;/div&gt;&lt;div&gt;Password Min&lt;/div&gt;&lt;div&gt;5 Karakter&quot;&lt;/div&gt;" style="shape=parallelogram;perimeter=parallelogramPerimeter;whiteSpace=wrap;html=1;fixedSize=1;" vertex="1" parent="1">
          <mxGeometry x="846" y="570" width="130" height="70" as="geometry" />
        </mxCell>
        <mxCell id="GuYKuh0SEshmyXuX4Fv7-35" style="edgeStyle=orthogonalEdgeStyle;rounded=0;orthogonalLoop=1;jettySize=auto;html=1;entryX=0.5;entryY=0;entryDx=0;entryDy=0;" edge="1" parent="1" source="GuYKuh0SEshmyXuX4Fv7-34" target="GuYKuh0SEshmyXuX4Fv7-36">
          <mxGeometry relative="1" as="geometry">
            <mxPoint x="911" y="780" as="targetPoint" />
          </mxGeometry>
        </mxCell>
        <mxCell id="GuYKuh0SEshmyXuX4Fv7-34" value="Input :&lt;div&gt;&quot;Konfrimasi&lt;/div&gt;&lt;div&gt;Password&quot;&lt;/div&gt;" style="shape=parallelogram;perimeter=parallelogramPerimeter;whiteSpace=wrap;html=1;fixedSize=1;" vertex="1" parent="1">
          <mxGeometry x="851" y="680" width="120" height="60" as="geometry" />
        </mxCell>
        <mxCell id="GuYKuh0SEshmyXuX4Fv7-39" style="edgeStyle=orthogonalEdgeStyle;rounded=0;orthogonalLoop=1;jettySize=auto;html=1;entryX=1;entryY=0.5;entryDx=0;entryDy=0;" edge="1" parent="1" source="GuYKuh0SEshmyXuX4Fv7-36" target="GuYKuh0SEshmyXuX4Fv7-3">
          <mxGeometry relative="1" as="geometry">
            <Array as="points">
              <mxPoint x="1000" y="836" />
              <mxPoint x="1000" y="165" />
            </Array>
          </mxGeometry>
        </mxCell>
        <mxCell id="GuYKuh0SEshmyXuX4Fv7-36" value="Output :&lt;div&gt;Registrasi berhasil !&lt;/div&gt;&lt;div&gt;Selamat datang&lt;/div&gt;&lt;div&gt;(username) silahkan&lt;/div&gt;&lt;div&gt;login untuk melanjutkannya&quot;&lt;/div&gt;" style="shape=parallelogram;perimeter=parallelogramPerimeter;whiteSpace=wrap;html=1;fixedSize=1;" vertex="1" parent="1">
          <mxGeometry x="836" y="786" width="150" height="100" as="geometry" />
        </mxCell>
        <mxCell id="GuYKuh0SEshmyXuX4Fv7-44" style="edgeStyle=orthogonalEdgeStyle;rounded=0;orthogonalLoop=1;jettySize=auto;html=1;entryX=0;entryY=0.5;entryDx=0;entryDy=0;" edge="1" parent="1" source="GuYKuh0SEshmyXuX4Fv7-41" target="GuYKuh0SEshmyXuX4Fv7-42">
          <mxGeometry relative="1" as="geometry">
            <Array as="points">
              <mxPoint x="290" y="1190" />
            </Array>
          </mxGeometry>
        </mxCell>
        <mxCell id="GuYKuh0SEshmyXuX4Fv7-41" value="Output :&lt;div&gt;&quot;Terimakasih&amp;nbsp;&lt;/div&gt;&lt;div&gt;telah menggunakan&lt;/div&gt;&lt;div&gt;sistem ini !&lt;/div&gt;&lt;div&gt;program akan keluar....&quot;&amp;nbsp;&lt;/div&gt;" style="shape=parallelogram;perimeter=parallelogramPerimeter;whiteSpace=wrap;html=1;fixedSize=1;" vertex="1" parent="1">
          <mxGeometry x="208" y="470" width="170" height="110" as="geometry" />
        </mxCell>
        <mxCell id="GuYKuh0SEshmyXuX4Fv7-42" value="End" style="ellipse;whiteSpace=wrap;html=1;" vertex="1" parent="1">
          <mxGeometry x="527" y="1150" width="120" height="80" as="geometry" />
        </mxCell>
      </root>
    </mxGraphModel>
  </diagram>
  <diagram id="JXYXFcw4HRqctK_pIkRG" name="Halaman-2">
    <mxGraphModel dx="4764" dy="596" grid="1" gridSize="10" guides="1" tooltips="1" connect="1" arrows="1" fold="1" page="1" pageScale="1" pageWidth="3300" pageHeight="4681" math="0" shadow="0">
      <root>
        <mxCell id="0" />
        <mxCell id="1" parent="0" />
        <mxCell id="x12I7InB7bITGFf1CAVp-2" style="edgeStyle=orthogonalEdgeStyle;rounded=0;orthogonalLoop=1;jettySize=auto;html=1;" edge="1" parent="1" source="x12I7InB7bITGFf1CAVp-1" target="sGkwqurIWdbV0Utr4BWg-1">
          <mxGeometry relative="1" as="geometry">
            <mxPoint x="-2930" y="209.9999999999999" as="targetPoint" />
          </mxGeometry>
        </mxCell>
        <mxCell id="x12I7InB7bITGFf1CAVp-1" value="A" style="shape=offPageConnector;whiteSpace=wrap;html=1;fillColor=light-dark(#FFFFFF,#CCCC00);" vertex="1" parent="1">
          <mxGeometry x="-2970" y="70" width="80" height="80" as="geometry" />
        </mxCell>
        <mxCell id="sGkwqurIWdbV0Utr4BWg-2" style="edgeStyle=orthogonalEdgeStyle;rounded=0;orthogonalLoop=1;jettySize=auto;html=1;" edge="1" parent="1" source="sGkwqurIWdbV0Utr4BWg-1" target="sGkwqurIWdbV0Utr4BWg-3">
          <mxGeometry relative="1" as="geometry">
            <mxPoint x="-2930" y="300" as="targetPoint" />
          </mxGeometry>
        </mxCell>
        <mxCell id="sGkwqurIWdbV0Utr4BWg-1" value="Output :&lt;div&gt;&quot;Selamat datang&lt;/div&gt;&lt;div&gt;admin&quot;&lt;/div&gt;" style="shape=parallelogram;perimeter=parallelogramPerimeter;whiteSpace=wrap;html=1;fixedSize=1;" vertex="1" parent="1">
          <mxGeometry x="-2990" y="189.9999999999999" width="120" height="60" as="geometry" />
        </mxCell>
        <mxCell id="sGkwqurIWdbV0Utr4BWg-4" style="edgeStyle=orthogonalEdgeStyle;rounded=0;orthogonalLoop=1;jettySize=auto;html=1;entryX=0.5;entryY=0;entryDx=0;entryDy=0;" edge="1" parent="1" source="sGkwqurIWdbV0Utr4BWg-3" target="sGkwqurIWdbV0Utr4BWg-6">
          <mxGeometry relative="1" as="geometry">
            <mxPoint x="-2930" y="410" as="targetPoint" />
          </mxGeometry>
        </mxCell>
        <mxCell id="sGkwqurIWdbV0Utr4BWg-3" value="Input :&amp;nbsp;&lt;div&gt;&quot;Tekan tombol&lt;/div&gt;&lt;div&gt;apapun untuk masuk&lt;/div&gt;&lt;div&gt;ke Menu admin....&quot;&lt;/div&gt;" style="shape=parallelogram;perimeter=parallelogramPerimeter;whiteSpace=wrap;html=1;fixedSize=1;" vertex="1" parent="1">
          <mxGeometry x="-3000" y="290" width="140" height="90" as="geometry" />
        </mxCell>
        <mxCell id="1yGgFdU1QpiOlpm2M0v_-1" style="edgeStyle=orthogonalEdgeStyle;rounded=0;orthogonalLoop=1;jettySize=auto;html=1;" edge="1" parent="1" source="sGkwqurIWdbV0Utr4BWg-6" target="1yGgFdU1QpiOlpm2M0v_-2">
          <mxGeometry relative="1" as="geometry">
            <mxPoint x="-2930" y="570" as="targetPoint" />
          </mxGeometry>
        </mxCell>
        <mxCell id="sGkwqurIWdbV0Utr4BWg-6" value="Menu admin :&lt;div&gt;1.Lihat Tiket&lt;/div&gt;&lt;div&gt;2. Tambah Tiket&lt;/div&gt;&lt;div&gt;3.Update Tiket&lt;/div&gt;&lt;div&gt;4. hapus Tiket&lt;/div&gt;&lt;div&gt;5. Laporan Penjualan&lt;/div&gt;&lt;div&gt;0. Logout&lt;/div&gt;" style="shape=parallelogram;perimeter=parallelogramPerimeter;whiteSpace=wrap;html=1;fixedSize=1;" vertex="1" parent="1">
          <mxGeometry x="-3010" y="410" width="160" height="130" as="geometry" />
        </mxCell>
        <mxCell id="1yGgFdU1QpiOlpm2M0v_-3" style="edgeStyle=orthogonalEdgeStyle;rounded=0;orthogonalLoop=1;jettySize=auto;html=1;" edge="1" parent="1" source="1yGgFdU1QpiOlpm2M0v_-2" target="1yGgFdU1QpiOlpm2M0v_-4">
          <mxGeometry relative="1" as="geometry">
            <mxPoint x="-2930" y="680" as="targetPoint" />
          </mxGeometry>
        </mxCell>
        <mxCell id="1yGgFdU1QpiOlpm2M0v_-2" value="Input :&lt;div&gt;&quot;Pilih menu&amp;nbsp;&lt;/div&gt;&lt;div&gt;1,2,3,4,5,0&quot;&lt;/div&gt;" style="shape=parallelogram;perimeter=parallelogramPerimeter;whiteSpace=wrap;html=1;fixedSize=1;" vertex="1" parent="1">
          <mxGeometry x="-2990" y="570" width="120" height="60" as="geometry" />
        </mxCell>
        <mxCell id="1yGgFdU1QpiOlpm2M0v_-5" style="edgeStyle=orthogonalEdgeStyle;rounded=0;orthogonalLoop=1;jettySize=auto;html=1;" edge="1" parent="1" source="1yGgFdU1QpiOlpm2M0v_-4" target="1yGgFdU1QpiOlpm2M0v_-6">
          <mxGeometry relative="1" as="geometry">
            <mxPoint x="-2930" y="800" as="targetPoint" />
          </mxGeometry>
        </mxCell>
        <mxCell id="oj4KhTdb1La-5M6QT8ON-29" style="edgeStyle=orthogonalEdgeStyle;rounded=0;orthogonalLoop=1;jettySize=auto;html=1;fontFamily=Helvetica;fontSize=12;fontColor=default;" edge="1" parent="1" source="1yGgFdU1QpiOlpm2M0v_-4" target="oj4KhTdb1La-5M6QT8ON-30">
          <mxGeometry relative="1" as="geometry">
            <mxPoint x="-1750" y="710" as="targetPoint" />
          </mxGeometry>
        </mxCell>
        <mxCell id="1yGgFdU1QpiOlpm2M0v_-4" value="IF = 1" style="rhombus;whiteSpace=wrap;html=1;" vertex="1" parent="1">
          <mxGeometry x="-2970" y="670" width="80" height="80" as="geometry" />
        </mxCell>
        <mxCell id="1yGgFdU1QpiOlpm2M0v_-7" style="edgeStyle=orthogonalEdgeStyle;rounded=0;orthogonalLoop=1;jettySize=auto;html=1;" edge="1" parent="1" source="1yGgFdU1QpiOlpm2M0v_-6" target="1yGgFdU1QpiOlpm2M0v_-8">
          <mxGeometry relative="1" as="geometry">
            <mxPoint x="-2930" y="980" as="targetPoint" />
          </mxGeometry>
        </mxCell>
        <mxCell id="1yGgFdU1QpiOlpm2M0v_-6" value="Lihat Tiket&lt;div&gt;1. Tampilkan Langsung sesuai (ID Awal)&lt;/div&gt;&lt;div&gt;2. Urutkan Bedasarkan Harga&lt;/div&gt;&lt;div&gt;3. Urutkan Bedasarkan Nama&lt;/div&gt;" style="shape=parallelogram;perimeter=parallelogramPerimeter;whiteSpace=wrap;html=1;fixedSize=1;" vertex="1" parent="1">
          <mxGeometry x="-3010" y="792" width="160" height="130" as="geometry" />
        </mxCell>
        <mxCell id="1yGgFdU1QpiOlpm2M0v_-9" style="edgeStyle=orthogonalEdgeStyle;rounded=0;orthogonalLoop=1;jettySize=auto;html=1;" edge="1" parent="1" source="1yGgFdU1QpiOlpm2M0v_-8" target="1yGgFdU1QpiOlpm2M0v_-10">
          <mxGeometry relative="1" as="geometry">
            <mxPoint x="-2930" y="1080" as="targetPoint" />
          </mxGeometry>
        </mxCell>
        <mxCell id="1yGgFdU1QpiOlpm2M0v_-8" value="Input :&lt;div&gt;&quot;pilih Lihat Tiket&lt;/div&gt;&lt;div&gt;1,2,3&quot;&lt;/div&gt;" style="shape=parallelogram;perimeter=parallelogramPerimeter;whiteSpace=wrap;html=1;fixedSize=1;" vertex="1" parent="1">
          <mxGeometry x="-2990" y="960" width="120" height="60" as="geometry" />
        </mxCell>
        <mxCell id="1yGgFdU1QpiOlpm2M0v_-11" style="edgeStyle=orthogonalEdgeStyle;rounded=0;orthogonalLoop=1;jettySize=auto;html=1;" edge="1" parent="1" source="1yGgFdU1QpiOlpm2M0v_-10" target="1yGgFdU1QpiOlpm2M0v_-12">
          <mxGeometry relative="1" as="geometry">
            <mxPoint x="-2930" y="1190" as="targetPoint" />
          </mxGeometry>
        </mxCell>
        <mxCell id="1yGgFdU1QpiOlpm2M0v_-13" style="edgeStyle=orthogonalEdgeStyle;rounded=0;orthogonalLoop=1;jettySize=auto;html=1;" edge="1" parent="1" source="1yGgFdU1QpiOlpm2M0v_-10" target="1yGgFdU1QpiOlpm2M0v_-14">
          <mxGeometry relative="1" as="geometry">
            <mxPoint x="-2760" y="1100" as="targetPoint" />
          </mxGeometry>
        </mxCell>
        <mxCell id="1yGgFdU1QpiOlpm2M0v_-10" value="IF = 1" style="rhombus;whiteSpace=wrap;html=1;" vertex="1" parent="1">
          <mxGeometry x="-2970" y="1060" width="80" height="80" as="geometry" />
        </mxCell>
        <mxCell id="1yGgFdU1QpiOlpm2M0v_-12" value="Output :&amp;nbsp;&lt;div&gt;&quot;Menampilkan&lt;/div&gt;&lt;div&gt;tiket sesuai&amp;nbsp;&lt;/div&gt;&lt;div&gt;dengan urutan&lt;/div&gt;&lt;div&gt;saat ini&quot;&lt;/div&gt;" style="shape=parallelogram;perimeter=parallelogramPerimeter;whiteSpace=wrap;html=1;fixedSize=1;" vertex="1" parent="1">
          <mxGeometry x="-3000" y="1180" width="140" height="90" as="geometry" />
        </mxCell>
        <mxCell id="1yGgFdU1QpiOlpm2M0v_-15" style="edgeStyle=orthogonalEdgeStyle;rounded=0;orthogonalLoop=1;jettySize=auto;html=1;" edge="1" parent="1" source="1yGgFdU1QpiOlpm2M0v_-14" target="1yGgFdU1QpiOlpm2M0v_-17">
          <mxGeometry relative="1" as="geometry">
            <mxPoint x="-2750" y="1200" as="targetPoint" />
          </mxGeometry>
        </mxCell>
        <mxCell id="oj4KhTdb1La-5M6QT8ON-11" style="edgeStyle=orthogonalEdgeStyle;rounded=0;orthogonalLoop=1;jettySize=auto;html=1;fontFamily=Helvetica;fontSize=12;fontColor=default;" edge="1" parent="1" source="1yGgFdU1QpiOlpm2M0v_-14" target="oj4KhTdb1La-5M6QT8ON-12">
          <mxGeometry relative="1" as="geometry">
            <mxPoint x="-2330" y="1100.0000000000002" as="targetPoint" />
          </mxGeometry>
        </mxCell>
        <mxCell id="1yGgFdU1QpiOlpm2M0v_-14" value="IF = 2" style="rhombus;whiteSpace=wrap;html=1;" vertex="1" parent="1">
          <mxGeometry x="-2790" y="1060" width="80" height="80" as="geometry" />
        </mxCell>
        <mxCell id="1yGgFdU1QpiOlpm2M0v_-18" style="edgeStyle=orthogonalEdgeStyle;rounded=0;orthogonalLoop=1;jettySize=auto;html=1;" edge="1" parent="1" source="1yGgFdU1QpiOlpm2M0v_-17" target="1yGgFdU1QpiOlpm2M0v_-19">
          <mxGeometry relative="1" as="geometry">
            <mxPoint x="-2750" y="1290" as="targetPoint" />
          </mxGeometry>
        </mxCell>
        <mxCell id="1yGgFdU1QpiOlpm2M0v_-17" value="Urutkan Harga&lt;div&gt;a. untuk Ascending&lt;/div&gt;&lt;div&gt;d. untuk Descending&lt;/div&gt;" style="shape=parallelogram;perimeter=parallelogramPerimeter;whiteSpace=wrap;html=1;fixedSize=1;" vertex="1" parent="1">
          <mxGeometry x="-2820" y="1170" width="140" height="70" as="geometry" />
        </mxCell>
        <mxCell id="1yGgFdU1QpiOlpm2M0v_-20" style="edgeStyle=orthogonalEdgeStyle;rounded=0;orthogonalLoop=1;jettySize=auto;html=1;" edge="1" parent="1" source="1yGgFdU1QpiOlpm2M0v_-19" target="1yGgFdU1QpiOlpm2M0v_-21">
          <mxGeometry relative="1" as="geometry">
            <mxPoint x="-2750" y="1380" as="targetPoint" />
          </mxGeometry>
        </mxCell>
        <mxCell id="1yGgFdU1QpiOlpm2M0v_-19" value="Input :&lt;div&gt;&quot;Urutkan Harga&lt;/div&gt;&lt;div&gt;a,d&quot;&lt;/div&gt;" style="shape=parallelogram;perimeter=parallelogramPerimeter;whiteSpace=wrap;html=1;fixedSize=1;" vertex="1" parent="1">
          <mxGeometry x="-2810" y="1270" width="120" height="60" as="geometry" />
        </mxCell>
        <mxCell id="1yGgFdU1QpiOlpm2M0v_-22" style="edgeStyle=orthogonalEdgeStyle;rounded=0;orthogonalLoop=1;jettySize=auto;html=1;" edge="1" parent="1" source="1yGgFdU1QpiOlpm2M0v_-21" target="1yGgFdU1QpiOlpm2M0v_-23">
          <mxGeometry relative="1" as="geometry">
            <mxPoint x="-2750" y="1480" as="targetPoint" />
          </mxGeometry>
        </mxCell>
        <mxCell id="oj4KhTdb1La-5M6QT8ON-3" style="edgeStyle=orthogonalEdgeStyle;rounded=0;orthogonalLoop=1;jettySize=auto;html=1;fontFamily=Helvetica;fontSize=12;fontColor=default;" edge="1" parent="1" source="1yGgFdU1QpiOlpm2M0v_-21" target="oj4KhTdb1La-5M6QT8ON-4">
          <mxGeometry relative="1" as="geometry">
            <mxPoint x="-2610" y="1399.9999999999998" as="targetPoint" />
          </mxGeometry>
        </mxCell>
        <mxCell id="1yGgFdU1QpiOlpm2M0v_-21" value="IF = a" style="rhombus;whiteSpace=wrap;html=1;" vertex="1" parent="1">
          <mxGeometry x="-2790" y="1360" width="80" height="80" as="geometry" />
        </mxCell>
        <mxCell id="1yGgFdU1QpiOlpm2M0v_-23" value="Output :&lt;div&gt;&quot;tiket diurutkan bedasarkan harga&lt;/div&gt;&lt;div&gt;(menggunakan Ascending&quot;&lt;/div&gt;" style="shape=parallelogram;perimeter=parallelogramPerimeter;whiteSpace=wrap;html=1;fixedSize=1;" vertex="1" parent="1">
          <mxGeometry x="-2820" y="1470" width="140" height="80" as="geometry" />
        </mxCell>
        <mxCell id="oj4KhTdb1La-5M6QT8ON-7" style="edgeStyle=orthogonalEdgeStyle;rounded=0;orthogonalLoop=1;jettySize=auto;html=1;entryX=0.5;entryY=0;entryDx=0;entryDy=0;fontFamily=Helvetica;fontSize=12;fontColor=default;" edge="1" parent="1" source="oj4KhTdb1La-5M6QT8ON-4" target="oj4KhTdb1La-5M6QT8ON-6">
          <mxGeometry relative="1" as="geometry" />
        </mxCell>
        <mxCell id="oj4KhTdb1La-5M6QT8ON-8" style="edgeStyle=orthogonalEdgeStyle;rounded=0;orthogonalLoop=1;jettySize=auto;html=1;fontFamily=Helvetica;fontSize=12;fontColor=default;" edge="1" parent="1" source="oj4KhTdb1La-5M6QT8ON-4" target="oj4KhTdb1La-5M6QT8ON-9">
          <mxGeometry relative="1" as="geometry">
            <mxPoint x="-2430" y="1470" as="targetPoint" />
          </mxGeometry>
        </mxCell>
        <mxCell id="oj4KhTdb1La-5M6QT8ON-4" value="IF = d" style="rhombus;whiteSpace=wrap;html=1;strokeColor=default;align=center;verticalAlign=middle;fontFamily=Helvetica;fontSize=12;fontColor=default;fillColor=default;" vertex="1" parent="1">
          <mxGeometry x="-2620" y="1359.9999999999998" width="80" height="80" as="geometry" />
        </mxCell>
        <mxCell id="oj4KhTdb1La-5M6QT8ON-136" style="edgeStyle=orthogonalEdgeStyle;rounded=0;orthogonalLoop=1;jettySize=auto;html=1;fontFamily=Helvetica;fontSize=12;fontColor=default;entryX=0.003;entryY=0.828;entryDx=0;entryDy=0;entryPerimeter=0;" edge="1" parent="1" source="oj4KhTdb1La-5M6QT8ON-6" target="sGkwqurIWdbV0Utr4BWg-6">
          <mxGeometry relative="1" as="geometry">
            <mxPoint x="-3090" y="560" as="targetPoint" />
            <Array as="points">
              <mxPoint x="-2580" y="1560" />
              <mxPoint x="-3050" y="1560" />
              <mxPoint x="-3050" y="518" />
            </Array>
          </mxGeometry>
        </mxCell>
        <mxCell id="oj4KhTdb1La-5M6QT8ON-6" value="Output :&lt;div&gt;&quot;tiket diurutkan bedasarkan harga&lt;/div&gt;&lt;div&gt;(menggunakan Descending&quot;&lt;/div&gt;" style="shape=parallelogram;perimeter=parallelogramPerimeter;whiteSpace=wrap;html=1;fixedSize=1;" vertex="1" parent="1">
          <mxGeometry x="-2650" y="1470" width="140" height="80" as="geometry" />
        </mxCell>
        <mxCell id="oj4KhTdb1La-5M6QT8ON-137" style="edgeStyle=orthogonalEdgeStyle;rounded=0;orthogonalLoop=1;jettySize=auto;html=1;fontFamily=Helvetica;fontSize=12;fontColor=default;entryX=0.028;entryY=0.71;entryDx=0;entryDy=0;entryPerimeter=0;" edge="1" parent="1" source="oj4KhTdb1La-5M6QT8ON-9" target="sGkwqurIWdbV0Utr4BWg-6">
          <mxGeometry relative="1" as="geometry">
            <mxPoint x="-3070" y="495.5555361793155" as="targetPoint" />
            <Array as="points">
              <mxPoint x="-2430" y="1570" />
              <mxPoint x="-3060" y="1570" />
              <mxPoint x="-3060" y="502" />
            </Array>
          </mxGeometry>
        </mxCell>
        <mxCell id="oj4KhTdb1La-5M6QT8ON-9" value="Output :&lt;div&gt;&quot;Pilihan Tidak&amp;nbsp;&lt;/div&gt;&lt;div&gt;Valid&quot;&lt;/div&gt;" style="shape=parallelogram;perimeter=parallelogramPerimeter;whiteSpace=wrap;html=1;fixedSize=1;strokeColor=default;align=center;verticalAlign=middle;fontFamily=Helvetica;fontSize=12;fontColor=default;fillColor=default;" vertex="1" parent="1">
          <mxGeometry x="-2490" y="1480" width="120" height="60" as="geometry" />
        </mxCell>
        <mxCell id="oj4KhTdb1La-5M6QT8ON-10" value="False" style="text;html=1;align=center;verticalAlign=middle;whiteSpace=wrap;rounded=0;fontFamily=Helvetica;fontSize=12;fontColor=default;" vertex="1" parent="1">
          <mxGeometry x="-2520" y="1370" width="60" height="30" as="geometry" />
        </mxCell>
        <mxCell id="oj4KhTdb1La-5M6QT8ON-28" style="edgeStyle=orthogonalEdgeStyle;rounded=0;orthogonalLoop=1;jettySize=auto;html=1;fontFamily=Helvetica;fontSize=12;fontColor=default;" edge="1" parent="1" source="oj4KhTdb1La-5M6QT8ON-12" target="oj4KhTdb1La-5M6QT8ON-15">
          <mxGeometry relative="1" as="geometry" />
        </mxCell>
        <mxCell id="oj4KhTdb1La-5M6QT8ON-12" value="IF = 3" style="rhombus;whiteSpace=wrap;html=1;strokeColor=default;align=center;verticalAlign=middle;fontFamily=Helvetica;fontSize=12;fontColor=default;fillColor=default;" vertex="1" parent="1">
          <mxGeometry x="-2300" y="1060.0000000000002" width="80" height="80" as="geometry" />
        </mxCell>
        <mxCell id="oj4KhTdb1La-5M6QT8ON-14" style="edgeStyle=orthogonalEdgeStyle;rounded=0;orthogonalLoop=1;jettySize=auto;html=1;" edge="1" parent="1" source="oj4KhTdb1La-5M6QT8ON-15" target="oj4KhTdb1La-5M6QT8ON-17">
          <mxGeometry relative="1" as="geometry">
            <mxPoint x="-2260" y="1290" as="targetPoint" />
          </mxGeometry>
        </mxCell>
        <mxCell id="oj4KhTdb1La-5M6QT8ON-15" value="Urutkan Nama&lt;div&gt;a. untuk Ascending&lt;/div&gt;&lt;div&gt;d. untuk Descending&lt;/div&gt;" style="shape=parallelogram;perimeter=parallelogramPerimeter;whiteSpace=wrap;html=1;fixedSize=1;" vertex="1" parent="1">
          <mxGeometry x="-2330" y="1170" width="140" height="70" as="geometry" />
        </mxCell>
        <mxCell id="oj4KhTdb1La-5M6QT8ON-16" style="edgeStyle=orthogonalEdgeStyle;rounded=0;orthogonalLoop=1;jettySize=auto;html=1;" edge="1" parent="1" source="oj4KhTdb1La-5M6QT8ON-17" target="oj4KhTdb1La-5M6QT8ON-20">
          <mxGeometry relative="1" as="geometry">
            <mxPoint x="-2260" y="1380" as="targetPoint" />
          </mxGeometry>
        </mxCell>
        <mxCell id="oj4KhTdb1La-5M6QT8ON-17" value="Input :&lt;div&gt;&quot;Urutkan Nama&lt;/div&gt;&lt;div&gt;a,d&quot;&lt;/div&gt;" style="shape=parallelogram;perimeter=parallelogramPerimeter;whiteSpace=wrap;html=1;fixedSize=1;" vertex="1" parent="1">
          <mxGeometry x="-2320" y="1270" width="120" height="60" as="geometry" />
        </mxCell>
        <mxCell id="oj4KhTdb1La-5M6QT8ON-18" style="edgeStyle=orthogonalEdgeStyle;rounded=0;orthogonalLoop=1;jettySize=auto;html=1;" edge="1" parent="1" source="oj4KhTdb1La-5M6QT8ON-20" target="oj4KhTdb1La-5M6QT8ON-21">
          <mxGeometry relative="1" as="geometry">
            <mxPoint x="-2260" y="1480" as="targetPoint" />
          </mxGeometry>
        </mxCell>
        <mxCell id="oj4KhTdb1La-5M6QT8ON-19" style="edgeStyle=orthogonalEdgeStyle;rounded=0;orthogonalLoop=1;jettySize=auto;html=1;fontFamily=Helvetica;fontSize=12;fontColor=default;" edge="1" parent="1" source="oj4KhTdb1La-5M6QT8ON-20" target="oj4KhTdb1La-5M6QT8ON-24">
          <mxGeometry relative="1" as="geometry">
            <mxPoint x="-2120" y="1399.9999999999998" as="targetPoint" />
          </mxGeometry>
        </mxCell>
        <mxCell id="oj4KhTdb1La-5M6QT8ON-20" value="IF = a" style="rhombus;whiteSpace=wrap;html=1;" vertex="1" parent="1">
          <mxGeometry x="-2300" y="1360" width="80" height="80" as="geometry" />
        </mxCell>
        <mxCell id="oj4KhTdb1La-5M6QT8ON-21" value="Output :&lt;div&gt;&quot;tiket diurutkan bedasarkan nama&lt;/div&gt;&lt;div&gt;(menggunakan Ascending&quot;&lt;/div&gt;" style="shape=parallelogram;perimeter=parallelogramPerimeter;whiteSpace=wrap;html=1;fixedSize=1;" vertex="1" parent="1">
          <mxGeometry x="-2330" y="1470" width="140" height="80" as="geometry" />
        </mxCell>
        <mxCell id="oj4KhTdb1La-5M6QT8ON-22" style="edgeStyle=orthogonalEdgeStyle;rounded=0;orthogonalLoop=1;jettySize=auto;html=1;entryX=0.5;entryY=0;entryDx=0;entryDy=0;fontFamily=Helvetica;fontSize=12;fontColor=default;" edge="1" parent="1" source="oj4KhTdb1La-5M6QT8ON-24" target="oj4KhTdb1La-5M6QT8ON-25">
          <mxGeometry relative="1" as="geometry" />
        </mxCell>
        <mxCell id="oj4KhTdb1La-5M6QT8ON-23" style="edgeStyle=orthogonalEdgeStyle;rounded=0;orthogonalLoop=1;jettySize=auto;html=1;fontFamily=Helvetica;fontSize=12;fontColor=default;" edge="1" parent="1" source="oj4KhTdb1La-5M6QT8ON-24" target="oj4KhTdb1La-5M6QT8ON-26">
          <mxGeometry relative="1" as="geometry">
            <mxPoint x="-1940" y="1470" as="targetPoint" />
          </mxGeometry>
        </mxCell>
        <mxCell id="oj4KhTdb1La-5M6QT8ON-24" value="IF = d" style="rhombus;whiteSpace=wrap;html=1;strokeColor=default;align=center;verticalAlign=middle;fontFamily=Helvetica;fontSize=12;fontColor=default;fillColor=default;" vertex="1" parent="1">
          <mxGeometry x="-2130" y="1359.9999999999998" width="80" height="80" as="geometry" />
        </mxCell>
        <mxCell id="oj4KhTdb1La-5M6QT8ON-139" style="edgeStyle=orthogonalEdgeStyle;rounded=0;orthogonalLoop=1;jettySize=auto;html=1;entryX=0;entryY=0.5;entryDx=0;entryDy=0;fontFamily=Helvetica;fontSize=12;fontColor=default;" edge="1" parent="1" source="oj4KhTdb1La-5M6QT8ON-25" target="sGkwqurIWdbV0Utr4BWg-6">
          <mxGeometry relative="1" as="geometry">
            <Array as="points">
              <mxPoint x="-2090" y="1590" />
              <mxPoint x="-3080" y="1590" />
              <mxPoint x="-3080" y="475" />
            </Array>
          </mxGeometry>
        </mxCell>
        <mxCell id="oj4KhTdb1La-5M6QT8ON-25" value="Output :&lt;div&gt;&quot;tiket diurutkan bedasarkan nama&lt;/div&gt;&lt;div&gt;(menggunakan Descending&quot;&lt;/div&gt;" style="shape=parallelogram;perimeter=parallelogramPerimeter;whiteSpace=wrap;html=1;fixedSize=1;" vertex="1" parent="1">
          <mxGeometry x="-2160" y="1470" width="140" height="80" as="geometry" />
        </mxCell>
        <mxCell id="oj4KhTdb1La-5M6QT8ON-140" style="edgeStyle=orthogonalEdgeStyle;rounded=0;orthogonalLoop=1;jettySize=auto;html=1;fontFamily=Helvetica;fontSize=12;fontColor=default;entryX=0.072;entryY=0.342;entryDx=0;entryDy=0;entryPerimeter=0;exitX=0.421;exitY=1.034;exitDx=0;exitDy=0;exitPerimeter=0;" edge="1" parent="1" source="oj4KhTdb1La-5M6QT8ON-26" target="sGkwqurIWdbV0Utr4BWg-6">
          <mxGeometry relative="1" as="geometry">
            <mxPoint x="-3120" y="520" as="targetPoint" />
            <mxPoint x="-1990.009009009009" y="1500.027027027027" as="sourcePoint" />
            <Array as="points">
              <mxPoint x="-1950" y="1600" />
              <mxPoint x="-3090" y="1600" />
              <mxPoint x="-3090" y="455" />
            </Array>
          </mxGeometry>
        </mxCell>
        <mxCell id="oj4KhTdb1La-5M6QT8ON-26" value="Output :&lt;div&gt;&quot;Pilihan Tidak&amp;nbsp;&lt;/div&gt;&lt;div&gt;Valid&quot;&lt;/div&gt;" style="shape=parallelogram;perimeter=parallelogramPerimeter;whiteSpace=wrap;html=1;fixedSize=1;strokeColor=default;align=center;verticalAlign=middle;fontFamily=Helvetica;fontSize=12;fontColor=default;fillColor=default;" vertex="1" parent="1">
          <mxGeometry x="-2000" y="1480" width="120" height="60" as="geometry" />
        </mxCell>
        <mxCell id="oj4KhTdb1La-5M6QT8ON-27" value="False" style="text;html=1;align=center;verticalAlign=middle;whiteSpace=wrap;rounded=0;fontFamily=Helvetica;fontSize=12;fontColor=default;" vertex="1" parent="1">
          <mxGeometry x="-2030" y="1370" width="60" height="30" as="geometry" />
        </mxCell>
        <mxCell id="oj4KhTdb1La-5M6QT8ON-31" style="edgeStyle=orthogonalEdgeStyle;rounded=0;orthogonalLoop=1;jettySize=auto;html=1;fontFamily=Helvetica;fontSize=12;fontColor=default;" edge="1" parent="1" source="oj4KhTdb1La-5M6QT8ON-30" target="oj4KhTdb1La-5M6QT8ON-32">
          <mxGeometry relative="1" as="geometry">
            <mxPoint x="-1750" y="799.9999999999998" as="targetPoint" />
          </mxGeometry>
        </mxCell>
        <mxCell id="oj4KhTdb1La-5M6QT8ON-45" style="edgeStyle=orthogonalEdgeStyle;rounded=0;orthogonalLoop=1;jettySize=auto;html=1;fontFamily=Helvetica;fontSize=12;fontColor=default;" edge="1" parent="1" source="oj4KhTdb1La-5M6QT8ON-30" target="oj4KhTdb1La-5M6QT8ON-46">
          <mxGeometry relative="1" as="geometry">
            <mxPoint x="-1500" y="710" as="targetPoint" />
          </mxGeometry>
        </mxCell>
        <mxCell id="oj4KhTdb1La-5M6QT8ON-30" value="IF= 2" style="rhombus;whiteSpace=wrap;html=1;strokeColor=default;align=center;verticalAlign=middle;fontFamily=Helvetica;fontSize=12;fontColor=default;fillColor=default;" vertex="1" parent="1">
          <mxGeometry x="-1790" y="670" width="80" height="80" as="geometry" />
        </mxCell>
        <mxCell id="oj4KhTdb1La-5M6QT8ON-33" style="edgeStyle=orthogonalEdgeStyle;rounded=0;orthogonalLoop=1;jettySize=auto;html=1;fontFamily=Helvetica;fontSize=12;fontColor=default;" edge="1" parent="1" source="oj4KhTdb1La-5M6QT8ON-32" target="oj4KhTdb1La-5M6QT8ON-34">
          <mxGeometry relative="1" as="geometry">
            <mxPoint x="-1750" y="910" as="targetPoint" />
          </mxGeometry>
        </mxCell>
        <mxCell id="oj4KhTdb1La-5M6QT8ON-32" value="Input :&lt;div&gt;&quot;Masukan Id&amp;nbsp;&lt;/div&gt;&lt;div&gt;tiket&quot;&lt;/div&gt;" style="shape=parallelogram;perimeter=parallelogramPerimeter;whiteSpace=wrap;html=1;fixedSize=1;strokeColor=default;align=center;verticalAlign=middle;fontFamily=Helvetica;fontSize=12;fontColor=default;fillColor=default;" vertex="1" parent="1">
          <mxGeometry x="-1810" y="791.9999999999998" width="120" height="60" as="geometry" />
        </mxCell>
        <mxCell id="oj4KhTdb1La-5M6QT8ON-35" style="edgeStyle=orthogonalEdgeStyle;rounded=0;orthogonalLoop=1;jettySize=auto;html=1;fontFamily=Helvetica;fontSize=12;fontColor=default;" edge="1" parent="1" source="oj4KhTdb1La-5M6QT8ON-34" target="oj4KhTdb1La-5M6QT8ON-36">
          <mxGeometry relative="1" as="geometry">
            <mxPoint x="-1750" y="1020" as="targetPoint" />
          </mxGeometry>
        </mxCell>
        <mxCell id="oj4KhTdb1La-5M6QT8ON-34" value="Input :&lt;div&gt;&quot;Masukan Nama&lt;/div&gt;&lt;div&gt;Konser (tanpa&lt;/div&gt;&lt;div&gt;simbol)&quot;&lt;/div&gt;" style="shape=parallelogram;perimeter=parallelogramPerimeter;whiteSpace=wrap;html=1;fixedSize=1;strokeColor=default;align=center;verticalAlign=middle;fontFamily=Helvetica;fontSize=12;fontColor=default;fillColor=default;" vertex="1" parent="1">
          <mxGeometry x="-1815" y="890" width="130" height="70" as="geometry" />
        </mxCell>
        <mxCell id="oj4KhTdb1La-5M6QT8ON-37" style="edgeStyle=orthogonalEdgeStyle;rounded=0;orthogonalLoop=1;jettySize=auto;html=1;fontFamily=Helvetica;fontSize=12;fontColor=default;" edge="1" parent="1" source="oj4KhTdb1La-5M6QT8ON-36" target="oj4KhTdb1La-5M6QT8ON-38">
          <mxGeometry relative="1" as="geometry">
            <mxPoint x="-1750" y="1100" as="targetPoint" />
          </mxGeometry>
        </mxCell>
        <mxCell id="oj4KhTdb1La-5M6QT8ON-36" value="Input :&lt;div&gt;&quot;Masukan&amp;nbsp;&lt;/div&gt;&lt;div&gt;Tanggal Konser&lt;/div&gt;&lt;div&gt;(1-31)&quot;&lt;/div&gt;" style="shape=parallelogram;perimeter=parallelogramPerimeter;whiteSpace=wrap;html=1;fixedSize=1;strokeColor=default;align=center;verticalAlign=middle;fontFamily=Helvetica;fontSize=12;fontColor=default;fillColor=default;" vertex="1" parent="1">
          <mxGeometry x="-1810" y="990" width="120" height="60" as="geometry" />
        </mxCell>
        <mxCell id="oj4KhTdb1La-5M6QT8ON-39" style="edgeStyle=orthogonalEdgeStyle;rounded=0;orthogonalLoop=1;jettySize=auto;html=1;fontFamily=Helvetica;fontSize=12;fontColor=default;" edge="1" parent="1" source="oj4KhTdb1La-5M6QT8ON-38" target="oj4KhTdb1La-5M6QT8ON-40">
          <mxGeometry relative="1" as="geometry">
            <mxPoint x="-1750" y="1180" as="targetPoint" />
          </mxGeometry>
        </mxCell>
        <mxCell id="oj4KhTdb1La-5M6QT8ON-38" value="Input :&lt;div&gt;&quot;Masukan Bulan&lt;/div&gt;&lt;div&gt;(1-12)&quot;&lt;/div&gt;" style="shape=parallelogram;perimeter=parallelogramPerimeter;whiteSpace=wrap;html=1;fixedSize=1;strokeColor=default;align=center;verticalAlign=middle;fontFamily=Helvetica;fontSize=12;fontColor=default;fillColor=default;" vertex="1" parent="1">
          <mxGeometry x="-1810" y="1080" width="120" height="60" as="geometry" />
        </mxCell>
        <mxCell id="oj4KhTdb1La-5M6QT8ON-41" style="edgeStyle=orthogonalEdgeStyle;rounded=0;orthogonalLoop=1;jettySize=auto;html=1;fontFamily=Helvetica;fontSize=12;fontColor=default;" edge="1" parent="1" source="oj4KhTdb1La-5M6QT8ON-40" target="oj4KhTdb1La-5M6QT8ON-42">
          <mxGeometry relative="1" as="geometry">
            <mxPoint x="-1750" y="1280" as="targetPoint" />
          </mxGeometry>
        </mxCell>
        <mxCell id="oj4KhTdb1La-5M6QT8ON-40" value="Input :&lt;div&gt;&quot;Masukan Tahun&lt;/div&gt;&lt;div&gt;&quot;2024-2050)&quot;&lt;/div&gt;" style="shape=parallelogram;perimeter=parallelogramPerimeter;whiteSpace=wrap;html=1;fixedSize=1;strokeColor=default;align=center;verticalAlign=middle;fontFamily=Helvetica;fontSize=12;fontColor=default;fillColor=default;" vertex="1" parent="1">
          <mxGeometry x="-1810" y="1170" width="120" height="60" as="geometry" />
        </mxCell>
        <mxCell id="oj4KhTdb1La-5M6QT8ON-43" style="edgeStyle=orthogonalEdgeStyle;rounded=0;orthogonalLoop=1;jettySize=auto;html=1;fontFamily=Helvetica;fontSize=12;fontColor=default;" edge="1" parent="1" source="oj4KhTdb1La-5M6QT8ON-42" target="oj4KhTdb1La-5M6QT8ON-44">
          <mxGeometry relative="1" as="geometry">
            <mxPoint x="-1750" y="1380" as="targetPoint" />
          </mxGeometry>
        </mxCell>
        <mxCell id="oj4KhTdb1La-5M6QT8ON-42" value="Input :&lt;div&gt;&quot;Masukan harga&lt;/div&gt;&lt;div&gt;tiket&quot;&lt;/div&gt;" style="shape=parallelogram;perimeter=parallelogramPerimeter;whiteSpace=wrap;html=1;fixedSize=1;strokeColor=default;align=center;verticalAlign=middle;fontFamily=Helvetica;fontSize=12;fontColor=default;fillColor=default;" vertex="1" parent="1">
          <mxGeometry x="-1810" y="1260" width="120" height="60" as="geometry" />
        </mxCell>
        <mxCell id="oj4KhTdb1La-5M6QT8ON-47" style="edgeStyle=orthogonalEdgeStyle;rounded=0;orthogonalLoop=1;jettySize=auto;html=1;fontFamily=Helvetica;fontSize=12;fontColor=default;" edge="1" parent="1" source="oj4KhTdb1La-5M6QT8ON-44" target="oj4KhTdb1La-5M6QT8ON-48">
          <mxGeometry relative="1" as="geometry">
            <mxPoint x="-1750" y="1500" as="targetPoint" />
          </mxGeometry>
        </mxCell>
        <mxCell id="oj4KhTdb1La-5M6QT8ON-44" value="Output :&lt;div&gt;&quot;Tiket (nama tiket) berhasil&lt;/div&gt;&lt;div&gt;ditambahkan&quot;&lt;/div&gt;" style="shape=parallelogram;perimeter=parallelogramPerimeter;whiteSpace=wrap;html=1;fixedSize=1;strokeColor=default;align=center;verticalAlign=middle;fontFamily=Helvetica;fontSize=12;fontColor=default;fillColor=default;" vertex="1" parent="1">
          <mxGeometry x="-1820" y="1360" width="140" height="70" as="geometry" />
        </mxCell>
        <mxCell id="oj4KhTdb1La-5M6QT8ON-49" style="edgeStyle=orthogonalEdgeStyle;rounded=0;orthogonalLoop=1;jettySize=auto;html=1;fontFamily=Helvetica;fontSize=12;fontColor=default;" edge="1" parent="1" source="oj4KhTdb1La-5M6QT8ON-46" target="oj4KhTdb1La-5M6QT8ON-51">
          <mxGeometry relative="1" as="geometry">
            <mxPoint x="-1500" y="810" as="targetPoint" />
          </mxGeometry>
        </mxCell>
        <mxCell id="oj4KhTdb1La-5M6QT8ON-86" style="edgeStyle=orthogonalEdgeStyle;rounded=0;orthogonalLoop=1;jettySize=auto;html=1;fontFamily=Helvetica;fontSize=12;fontColor=default;" edge="1" parent="1" source="oj4KhTdb1La-5M6QT8ON-46" target="oj4KhTdb1La-5M6QT8ON-87">
          <mxGeometry relative="1" as="geometry">
            <mxPoint x="-1050" y="710" as="targetPoint" />
          </mxGeometry>
        </mxCell>
        <mxCell id="oj4KhTdb1La-5M6QT8ON-46" value="IF = 3" style="rhombus;whiteSpace=wrap;html=1;strokeColor=default;align=center;verticalAlign=middle;fontFamily=Helvetica;fontSize=12;fontColor=default;fillColor=default;" vertex="1" parent="1">
          <mxGeometry x="-1540" y="670" width="80" height="80" as="geometry" />
        </mxCell>
        <mxCell id="oj4KhTdb1La-5M6QT8ON-48" value="Input :&lt;div&gt;&quot;Tekan tombol&lt;/div&gt;&lt;div&gt;apapun untuk&amp;nbsp;&lt;/div&gt;&lt;div&gt;kembali ke menu&lt;/div&gt;&lt;div&gt;admin&quot;&lt;/div&gt;" style="shape=parallelogram;perimeter=parallelogramPerimeter;whiteSpace=wrap;html=1;fixedSize=1;strokeColor=default;align=center;verticalAlign=middle;fontFamily=Helvetica;fontSize=12;fontColor=default;fillColor=default;" vertex="1" parent="1">
          <mxGeometry x="-1815" y="1470" width="130" height="80" as="geometry" />
        </mxCell>
        <mxCell id="oj4KhTdb1La-5M6QT8ON-52" style="edgeStyle=orthogonalEdgeStyle;rounded=0;orthogonalLoop=1;jettySize=auto;html=1;fontFamily=Helvetica;fontSize=12;fontColor=default;" edge="1" parent="1" source="oj4KhTdb1La-5M6QT8ON-51" target="oj4KhTdb1La-5M6QT8ON-53">
          <mxGeometry relative="1" as="geometry">
            <mxPoint x="-1500" y="920" as="targetPoint" />
          </mxGeometry>
        </mxCell>
        <mxCell id="oj4KhTdb1La-5M6QT8ON-51" value="Input :&lt;div&gt;&quot;Masukan Id tiket&lt;/div&gt;&lt;div&gt;yang akan di&lt;/div&gt;&lt;div&gt;update&quot;&lt;/div&gt;" style="shape=parallelogram;perimeter=parallelogramPerimeter;whiteSpace=wrap;html=1;fixedSize=1;strokeColor=default;align=center;verticalAlign=middle;fontFamily=Helvetica;fontSize=12;fontColor=default;fillColor=default;" vertex="1" parent="1">
          <mxGeometry x="-1560" y="792" width="120" height="60" as="geometry" />
        </mxCell>
        <mxCell id="oj4KhTdb1La-5M6QT8ON-54" style="edgeStyle=orthogonalEdgeStyle;rounded=0;orthogonalLoop=1;jettySize=auto;html=1;fontFamily=Helvetica;fontSize=12;fontColor=default;" edge="1" parent="1" source="oj4KhTdb1La-5M6QT8ON-53" target="oj4KhTdb1La-5M6QT8ON-55">
          <mxGeometry relative="1" as="geometry">
            <mxPoint x="-1500" y="1000" as="targetPoint" />
          </mxGeometry>
        </mxCell>
        <mxCell id="oj4KhTdb1La-5M6QT8ON-53" value="Output :&lt;div&gt;&quot;menampilkan&amp;nbsp;&lt;/div&gt;&lt;div&gt;data tiket lama&quot;&lt;/div&gt;" style="shape=parallelogram;perimeter=parallelogramPerimeter;whiteSpace=wrap;html=1;fixedSize=1;strokeColor=default;align=center;verticalAlign=middle;fontFamily=Helvetica;fontSize=12;fontColor=default;fillColor=default;" vertex="1" parent="1">
          <mxGeometry x="-1560" y="890" width="120" height="60" as="geometry" />
        </mxCell>
        <mxCell id="oj4KhTdb1La-5M6QT8ON-56" style="edgeStyle=orthogonalEdgeStyle;rounded=0;orthogonalLoop=1;jettySize=auto;html=1;fontFamily=Helvetica;fontSize=12;fontColor=default;" edge="1" parent="1" source="oj4KhTdb1La-5M6QT8ON-55" target="oj4KhTdb1La-5M6QT8ON-57">
          <mxGeometry relative="1" as="geometry">
            <mxPoint x="-1500" y="1099.9999999999998" as="targetPoint" />
          </mxGeometry>
        </mxCell>
        <mxCell id="oj4KhTdb1La-5M6QT8ON-55" value="Input :&lt;div&gt;&quot;Masukan nama&amp;nbsp;&lt;/div&gt;&lt;div&gt;konser baru&quot;&lt;/div&gt;" style="shape=parallelogram;perimeter=parallelogramPerimeter;whiteSpace=wrap;html=1;fixedSize=1;strokeColor=default;align=center;verticalAlign=middle;fontFamily=Helvetica;fontSize=12;fontColor=default;fillColor=default;" vertex="1" parent="1">
          <mxGeometry x="-1560" y="990" width="120" height="60" as="geometry" />
        </mxCell>
        <mxCell id="oj4KhTdb1La-5M6QT8ON-58" style="edgeStyle=orthogonalEdgeStyle;rounded=0;orthogonalLoop=1;jettySize=auto;html=1;fontFamily=Helvetica;fontSize=12;fontColor=default;" edge="1" parent="1" source="oj4KhTdb1La-5M6QT8ON-57" target="oj4KhTdb1La-5M6QT8ON-59">
          <mxGeometry relative="1" as="geometry">
            <mxPoint x="-1500" y="1199.9999999999998" as="targetPoint" />
          </mxGeometry>
        </mxCell>
        <mxCell id="oj4KhTdb1La-5M6QT8ON-57" value="Update tanggal?&lt;div&gt;Y/N&lt;/div&gt;" style="shape=parallelogram;perimeter=parallelogramPerimeter;whiteSpace=wrap;html=1;fixedSize=1;strokeColor=default;align=center;verticalAlign=middle;fontFamily=Helvetica;fontSize=12;fontColor=default;fillColor=default;" vertex="1" parent="1">
          <mxGeometry x="-1560" y="1089.9999999999998" width="120" height="60" as="geometry" />
        </mxCell>
        <mxCell id="oj4KhTdb1La-5M6QT8ON-60" style="edgeStyle=orthogonalEdgeStyle;rounded=0;orthogonalLoop=1;jettySize=auto;html=1;fontFamily=Helvetica;fontSize=12;fontColor=default;" edge="1" parent="1" source="oj4KhTdb1La-5M6QT8ON-59" target="oj4KhTdb1La-5M6QT8ON-61">
          <mxGeometry relative="1" as="geometry">
            <mxPoint x="-1500" y="1300.0000000000002" as="targetPoint" />
          </mxGeometry>
        </mxCell>
        <mxCell id="oj4KhTdb1La-5M6QT8ON-59" value="Input :&lt;div&gt;&quot;Update tanggal&lt;/div&gt;&lt;div&gt;Y/N&quot;&lt;/div&gt;" style="shape=parallelogram;perimeter=parallelogramPerimeter;whiteSpace=wrap;html=1;fixedSize=1;strokeColor=default;align=center;verticalAlign=middle;fontFamily=Helvetica;fontSize=12;fontColor=default;fillColor=default;" vertex="1" parent="1">
          <mxGeometry x="-1560" y="1189.9999999999998" width="120" height="60" as="geometry" />
        </mxCell>
        <mxCell id="oj4KhTdb1La-5M6QT8ON-69" style="edgeStyle=orthogonalEdgeStyle;rounded=0;orthogonalLoop=1;jettySize=auto;html=1;entryX=0.5;entryY=0;entryDx=0;entryDy=0;fontFamily=Helvetica;fontSize=12;fontColor=default;" edge="1" parent="1" source="oj4KhTdb1La-5M6QT8ON-61" target="oj4KhTdb1La-5M6QT8ON-63">
          <mxGeometry relative="1" as="geometry" />
        </mxCell>
        <mxCell id="oj4KhTdb1La-5M6QT8ON-75" style="edgeStyle=orthogonalEdgeStyle;rounded=0;orthogonalLoop=1;jettySize=auto;html=1;fontFamily=Helvetica;fontSize=12;fontColor=default;" edge="1" parent="1" source="oj4KhTdb1La-5M6QT8ON-61" target="oj4KhTdb1La-5M6QT8ON-76">
          <mxGeometry relative="1" as="geometry">
            <mxPoint x="-1320" y="1320.0000000000002" as="targetPoint" />
          </mxGeometry>
        </mxCell>
        <mxCell id="oj4KhTdb1La-5M6QT8ON-61" value="IF = Y" style="rhombus;whiteSpace=wrap;html=1;strokeColor=default;align=center;verticalAlign=middle;fontFamily=Helvetica;fontSize=12;fontColor=default;fillColor=default;" vertex="1" parent="1">
          <mxGeometry x="-1540" y="1280.0000000000002" width="80" height="80" as="geometry" />
        </mxCell>
        <mxCell id="oj4KhTdb1La-5M6QT8ON-62" style="edgeStyle=orthogonalEdgeStyle;rounded=0;orthogonalLoop=1;jettySize=auto;html=1;fontFamily=Helvetica;fontSize=12;fontColor=default;" edge="1" parent="1" source="oj4KhTdb1La-5M6QT8ON-63" target="oj4KhTdb1La-5M6QT8ON-65">
          <mxGeometry relative="1" as="geometry">
            <mxPoint x="-1500" y="1500" as="targetPoint" />
          </mxGeometry>
        </mxCell>
        <mxCell id="oj4KhTdb1La-5M6QT8ON-63" value="Input :&lt;div&gt;&quot;Masukan&amp;nbsp;&lt;/div&gt;&lt;div&gt;Tanggal Konser&lt;/div&gt;&lt;div&gt;(1-31)&quot;&lt;/div&gt;" style="shape=parallelogram;perimeter=parallelogramPerimeter;whiteSpace=wrap;html=1;fixedSize=1;strokeColor=default;align=center;verticalAlign=middle;fontFamily=Helvetica;fontSize=12;fontColor=default;fillColor=default;" vertex="1" parent="1">
          <mxGeometry x="-1560" y="1390" width="120" height="60" as="geometry" />
        </mxCell>
        <mxCell id="oj4KhTdb1La-5M6QT8ON-64" style="edgeStyle=orthogonalEdgeStyle;rounded=0;orthogonalLoop=1;jettySize=auto;html=1;fontFamily=Helvetica;fontSize=12;fontColor=default;" edge="1" parent="1" source="oj4KhTdb1La-5M6QT8ON-65" target="oj4KhTdb1La-5M6QT8ON-67">
          <mxGeometry relative="1" as="geometry">
            <mxPoint x="-1500" y="1580" as="targetPoint" />
          </mxGeometry>
        </mxCell>
        <mxCell id="oj4KhTdb1La-5M6QT8ON-65" value="Input :&lt;div&gt;&quot;Masukan Bulan&lt;/div&gt;&lt;div&gt;(1-12)&quot;&lt;/div&gt;" style="shape=parallelogram;perimeter=parallelogramPerimeter;whiteSpace=wrap;html=1;fixedSize=1;strokeColor=default;align=center;verticalAlign=middle;fontFamily=Helvetica;fontSize=12;fontColor=default;fillColor=default;" vertex="1" parent="1">
          <mxGeometry x="-1560" y="1480" width="120" height="60" as="geometry" />
        </mxCell>
        <mxCell id="oj4KhTdb1La-5M6QT8ON-66" style="edgeStyle=orthogonalEdgeStyle;rounded=0;orthogonalLoop=1;jettySize=auto;html=1;fontFamily=Helvetica;fontSize=12;fontColor=default;" edge="1" parent="1" source="oj4KhTdb1La-5M6QT8ON-67" target="oj4KhTdb1La-5M6QT8ON-68">
          <mxGeometry relative="1" as="geometry">
            <mxPoint x="-1500" y="1680" as="targetPoint" />
          </mxGeometry>
        </mxCell>
        <mxCell id="oj4KhTdb1La-5M6QT8ON-67" value="Input :&lt;div&gt;&quot;Masukan Tahun&lt;/div&gt;&lt;div&gt;&quot;2024-2050)&quot;&lt;/div&gt;" style="shape=parallelogram;perimeter=parallelogramPerimeter;whiteSpace=wrap;html=1;fixedSize=1;strokeColor=default;align=center;verticalAlign=middle;fontFamily=Helvetica;fontSize=12;fontColor=default;fillColor=default;" vertex="1" parent="1">
          <mxGeometry x="-1560" y="1570" width="120" height="60" as="geometry" />
        </mxCell>
        <mxCell id="oj4KhTdb1La-5M6QT8ON-70" style="edgeStyle=orthogonalEdgeStyle;rounded=0;orthogonalLoop=1;jettySize=auto;html=1;fontFamily=Helvetica;fontSize=12;fontColor=default;" edge="1" parent="1" source="oj4KhTdb1La-5M6QT8ON-68" target="oj4KhTdb1La-5M6QT8ON-71">
          <mxGeometry relative="1" as="geometry">
            <mxPoint x="-1500" y="1770" as="targetPoint" />
          </mxGeometry>
        </mxCell>
        <mxCell id="oj4KhTdb1La-5M6QT8ON-68" value="Input :&lt;div&gt;&quot;Masukan harga&lt;/div&gt;&lt;div&gt;tiket&quot;&lt;/div&gt;" style="shape=parallelogram;perimeter=parallelogramPerimeter;whiteSpace=wrap;html=1;fixedSize=1;strokeColor=default;align=center;verticalAlign=middle;fontFamily=Helvetica;fontSize=12;fontColor=default;fillColor=default;" vertex="1" parent="1">
          <mxGeometry x="-1560" y="1660" width="120" height="60" as="geometry" />
        </mxCell>
        <mxCell id="oj4KhTdb1La-5M6QT8ON-74" style="edgeStyle=orthogonalEdgeStyle;rounded=0;orthogonalLoop=1;jettySize=auto;html=1;entryX=0.5;entryY=0;entryDx=0;entryDy=0;fontFamily=Helvetica;fontSize=12;fontColor=default;" edge="1" parent="1" source="oj4KhTdb1La-5M6QT8ON-71" target="oj4KhTdb1La-5M6QT8ON-72">
          <mxGeometry relative="1" as="geometry" />
        </mxCell>
        <mxCell id="oj4KhTdb1La-5M6QT8ON-71" value="Output :&lt;div&gt;&quot;Tiket id....&lt;/div&gt;&lt;div&gt;Berhasil diperbarui&quot;&lt;/div&gt;" style="shape=parallelogram;perimeter=parallelogramPerimeter;whiteSpace=wrap;html=1;fixedSize=1;strokeColor=default;align=center;verticalAlign=middle;fontFamily=Helvetica;fontSize=12;fontColor=default;fillColor=default;" vertex="1" parent="1">
          <mxGeometry x="-1570" y="1750" width="140" height="70" as="geometry" />
        </mxCell>
        <mxCell id="oj4KhTdb1La-5M6QT8ON-149" style="edgeStyle=orthogonalEdgeStyle;rounded=0;orthogonalLoop=1;jettySize=auto;html=1;fontFamily=Helvetica;fontSize=12;fontColor=default;entryX=0.99;entryY=0.102;entryDx=0;entryDy=0;entryPerimeter=0;" edge="1" parent="1" source="oj4KhTdb1La-5M6QT8ON-72" target="sGkwqurIWdbV0Utr4BWg-6">
          <mxGeometry relative="1" as="geometry">
            <mxPoint x="-2260" y="290" as="targetPoint" />
            <Array as="points">
              <mxPoint x="-230" y="1894" />
              <mxPoint x="-230" y="423" />
            </Array>
          </mxGeometry>
        </mxCell>
        <mxCell id="oj4KhTdb1La-5M6QT8ON-72" value="Input :&lt;div&gt;&quot;Tekan tombol&lt;/div&gt;&lt;div&gt;apapun untuk&amp;nbsp;&lt;/div&gt;&lt;div&gt;kembali ke menu&lt;/div&gt;&lt;div&gt;admin&quot;&lt;/div&gt;" style="shape=parallelogram;perimeter=parallelogramPerimeter;whiteSpace=wrap;html=1;fixedSize=1;strokeColor=default;align=center;verticalAlign=middle;fontFamily=Helvetica;fontSize=12;fontColor=default;fillColor=default;" vertex="1" parent="1">
          <mxGeometry x="-1565" y="1854" width="130" height="80" as="geometry" />
        </mxCell>
        <mxCell id="oj4KhTdb1La-5M6QT8ON-78" style="edgeStyle=orthogonalEdgeStyle;rounded=0;orthogonalLoop=1;jettySize=auto;html=1;entryX=0.5;entryY=0;entryDx=0;entryDy=0;fontFamily=Helvetica;fontSize=12;fontColor=default;" edge="1" parent="1" source="oj4KhTdb1La-5M6QT8ON-76" target="oj4KhTdb1La-5M6QT8ON-77">
          <mxGeometry relative="1" as="geometry" />
        </mxCell>
        <mxCell id="oj4KhTdb1La-5M6QT8ON-76" value="IF = N" style="rhombus;whiteSpace=wrap;html=1;strokeColor=default;align=center;verticalAlign=middle;fontFamily=Helvetica;fontSize=12;fontColor=default;fillColor=default;" vertex="1" parent="1">
          <mxGeometry x="-1360" y="1280.0000000000002" width="80" height="80" as="geometry" />
        </mxCell>
        <mxCell id="oj4KhTdb1La-5M6QT8ON-77" value="Input :&lt;div&gt;&quot;Masukan harga&lt;/div&gt;&lt;div&gt;tiket&quot;&lt;/div&gt;" style="shape=parallelogram;perimeter=parallelogramPerimeter;whiteSpace=wrap;html=1;fixedSize=1;strokeColor=default;align=center;verticalAlign=middle;fontFamily=Helvetica;fontSize=12;fontColor=default;fillColor=default;" vertex="1" parent="1">
          <mxGeometry x="-1380" y="1395" width="120" height="60" as="geometry" />
        </mxCell>
        <mxCell id="oj4KhTdb1La-5M6QT8ON-85" style="edgeStyle=orthogonalEdgeStyle;rounded=0;orthogonalLoop=1;jettySize=auto;html=1;entryX=0.5;entryY=0;entryDx=0;entryDy=0;fontFamily=Helvetica;fontSize=12;fontColor=default;" edge="1" parent="1" source="oj4KhTdb1La-5M6QT8ON-79" target="oj4KhTdb1La-5M6QT8ON-83">
          <mxGeometry relative="1" as="geometry" />
        </mxCell>
        <mxCell id="oj4KhTdb1La-5M6QT8ON-79" value="Output :&lt;div&gt;&quot;Tiket id....&lt;/div&gt;&lt;div&gt;Berhasil diperbarui&quot;&lt;/div&gt;" style="shape=parallelogram;perimeter=parallelogramPerimeter;whiteSpace=wrap;html=1;fixedSize=1;strokeColor=default;align=center;verticalAlign=middle;fontFamily=Helvetica;fontSize=12;fontColor=default;fillColor=default;" vertex="1" parent="1">
          <mxGeometry x="-1397" y="1490" width="140" height="70" as="geometry" />
        </mxCell>
        <mxCell id="oj4KhTdb1La-5M6QT8ON-81" style="edgeStyle=orthogonalEdgeStyle;rounded=0;orthogonalLoop=1;jettySize=auto;html=1;entryX=0.551;entryY=0.034;entryDx=0;entryDy=0;entryPerimeter=0;fontFamily=Helvetica;fontSize=12;fontColor=default;" edge="1" parent="1" source="oj4KhTdb1La-5M6QT8ON-77" target="oj4KhTdb1La-5M6QT8ON-79">
          <mxGeometry relative="1" as="geometry" />
        </mxCell>
        <mxCell id="oj4KhTdb1La-5M6QT8ON-148" style="edgeStyle=orthogonalEdgeStyle;rounded=0;orthogonalLoop=1;jettySize=auto;html=1;fontFamily=Helvetica;fontSize=12;fontColor=default;entryX=1;entryY=0.25;entryDx=0;entryDy=0;" edge="1" parent="1" source="oj4KhTdb1La-5M6QT8ON-83" target="sGkwqurIWdbV0Utr4BWg-6">
          <mxGeometry relative="1" as="geometry">
            <mxPoint x="-2430" y="380" as="targetPoint" />
            <Array as="points">
              <mxPoint x="-250" y="1634" />
              <mxPoint x="-250" y="445" />
            </Array>
          </mxGeometry>
        </mxCell>
        <mxCell id="oj4KhTdb1La-5M6QT8ON-83" value="Input :&lt;div&gt;&quot;Tekan tombol&lt;/div&gt;&lt;div&gt;apapun untuk&amp;nbsp;&lt;/div&gt;&lt;div&gt;kembali ke menu&lt;/div&gt;&lt;div&gt;admin&quot;&lt;/div&gt;" style="shape=parallelogram;perimeter=parallelogramPerimeter;whiteSpace=wrap;html=1;fixedSize=1;strokeColor=default;align=center;verticalAlign=middle;fontFamily=Helvetica;fontSize=12;fontColor=default;fillColor=default;" vertex="1" parent="1">
          <mxGeometry x="-1393" y="1594" width="130" height="80" as="geometry" />
        </mxCell>
        <mxCell id="oj4KhTdb1La-5M6QT8ON-88" style="edgeStyle=orthogonalEdgeStyle;rounded=0;orthogonalLoop=1;jettySize=auto;html=1;fontFamily=Helvetica;fontSize=12;fontColor=default;" edge="1" parent="1" source="oj4KhTdb1La-5M6QT8ON-87" target="oj4KhTdb1La-5M6QT8ON-89">
          <mxGeometry relative="1" as="geometry">
            <mxPoint x="-1163" y="820" as="targetPoint" />
          </mxGeometry>
        </mxCell>
        <mxCell id="oj4KhTdb1La-5M6QT8ON-103" style="edgeStyle=orthogonalEdgeStyle;rounded=0;orthogonalLoop=1;jettySize=auto;html=1;fontFamily=Helvetica;fontSize=12;fontColor=default;" edge="1" parent="1" source="oj4KhTdb1La-5M6QT8ON-87" target="oj4KhTdb1La-5M6QT8ON-104">
          <mxGeometry relative="1" as="geometry">
            <mxPoint x="-800" y="710" as="targetPoint" />
          </mxGeometry>
        </mxCell>
        <mxCell id="oj4KhTdb1La-5M6QT8ON-87" value="IF = 4" style="rhombus;whiteSpace=wrap;html=1;strokeColor=default;align=center;verticalAlign=middle;fontFamily=Helvetica;fontSize=12;fontColor=default;fillColor=default;" vertex="1" parent="1">
          <mxGeometry x="-1203" y="670" width="80" height="80" as="geometry" />
        </mxCell>
        <mxCell id="oj4KhTdb1La-5M6QT8ON-90" style="edgeStyle=orthogonalEdgeStyle;rounded=0;orthogonalLoop=1;jettySize=auto;html=1;fontFamily=Helvetica;fontSize=12;fontColor=default;" edge="1" parent="1" source="oj4KhTdb1La-5M6QT8ON-89" target="oj4KhTdb1La-5M6QT8ON-91">
          <mxGeometry relative="1" as="geometry">
            <mxPoint x="-1163" y="890" as="targetPoint" />
          </mxGeometry>
        </mxCell>
        <mxCell id="oj4KhTdb1La-5M6QT8ON-147" value="" style="edgeStyle=orthogonalEdgeStyle;rounded=0;orthogonalLoop=1;jettySize=auto;html=1;fontFamily=Helvetica;fontSize=12;fontColor=default;" edge="1" parent="1" source="oj4KhTdb1La-5M6QT8ON-89" target="oj4KhTdb1La-5M6QT8ON-91">
          <mxGeometry relative="1" as="geometry" />
        </mxCell>
        <mxCell id="oj4KhTdb1La-5M6QT8ON-89" value="Input :&lt;div&gt;&quot;Masukan id&lt;/div&gt;&lt;div&gt;tiket yang ingin&lt;/div&gt;&lt;div&gt;dihapus&quot;&lt;/div&gt;" style="shape=parallelogram;perimeter=parallelogramPerimeter;whiteSpace=wrap;html=1;fixedSize=1;strokeColor=default;align=center;verticalAlign=middle;fontFamily=Helvetica;fontSize=12;fontColor=default;fillColor=default;" vertex="1" parent="1">
          <mxGeometry x="-1224.5" y="792" width="123" height="60" as="geometry" />
        </mxCell>
        <mxCell id="oj4KhTdb1La-5M6QT8ON-94" style="edgeStyle=orthogonalEdgeStyle;rounded=0;orthogonalLoop=1;jettySize=auto;html=1;entryX=0.5;entryY=0;entryDx=0;entryDy=0;fontFamily=Helvetica;fontSize=12;fontColor=default;" edge="1" parent="1" source="oj4KhTdb1La-5M6QT8ON-91" target="oj4KhTdb1La-5M6QT8ON-93">
          <mxGeometry relative="1" as="geometry" />
        </mxCell>
        <mxCell id="oj4KhTdb1La-5M6QT8ON-91" value="Anda yakin ingin&lt;div&gt;menghapus tiket&lt;/div&gt;&lt;div&gt;(nama tiket)? Y/N&lt;/div&gt;" style="shape=parallelogram;perimeter=parallelogramPerimeter;whiteSpace=wrap;html=1;fixedSize=1;strokeColor=default;align=center;verticalAlign=middle;fontFamily=Helvetica;fontSize=12;fontColor=default;fillColor=default;" vertex="1" parent="1">
          <mxGeometry x="-1230.25" y="895" width="134.5" height="65" as="geometry" />
        </mxCell>
        <mxCell id="oj4KhTdb1La-5M6QT8ON-98" style="edgeStyle=orthogonalEdgeStyle;rounded=0;orthogonalLoop=1;jettySize=auto;html=1;entryX=0.5;entryY=0;entryDx=0;entryDy=0;fontFamily=Helvetica;fontSize=12;fontColor=default;" edge="1" parent="1" source="oj4KhTdb1La-5M6QT8ON-93" target="oj4KhTdb1La-5M6QT8ON-96">
          <mxGeometry relative="1" as="geometry" />
        </mxCell>
        <mxCell id="oj4KhTdb1La-5M6QT8ON-93" value="Input :&lt;div&gt;&quot;Hapus tiket&lt;/div&gt;&lt;div&gt;Y/N&quot;&lt;/div&gt;" style="shape=parallelogram;perimeter=parallelogramPerimeter;whiteSpace=wrap;html=1;fixedSize=1;strokeColor=default;align=center;verticalAlign=middle;fontFamily=Helvetica;fontSize=12;fontColor=default;fillColor=default;" vertex="1" parent="1">
          <mxGeometry x="-1223.5" y="1001" width="120" height="60" as="geometry" />
        </mxCell>
        <mxCell id="oj4KhTdb1La-5M6QT8ON-95" style="edgeStyle=orthogonalEdgeStyle;rounded=0;orthogonalLoop=1;jettySize=auto;html=1;fontFamily=Helvetica;fontSize=12;fontColor=default;" edge="1" parent="1" source="oj4KhTdb1La-5M6QT8ON-96" target="oj4KhTdb1La-5M6QT8ON-97">
          <mxGeometry relative="1" as="geometry">
            <mxPoint x="-983" y="1130" as="targetPoint" />
          </mxGeometry>
        </mxCell>
        <mxCell id="oj4KhTdb1La-5M6QT8ON-99" style="edgeStyle=orthogonalEdgeStyle;rounded=0;orthogonalLoop=1;jettySize=auto;html=1;fontFamily=Helvetica;fontSize=12;fontColor=default;" edge="1" parent="1" source="oj4KhTdb1La-5M6QT8ON-96" target="oj4KhTdb1La-5M6QT8ON-100">
          <mxGeometry relative="1" as="geometry">
            <mxPoint x="-1164" y="1220" as="targetPoint" />
          </mxGeometry>
        </mxCell>
        <mxCell id="oj4KhTdb1La-5M6QT8ON-96" value="IF = Y" style="rhombus;whiteSpace=wrap;html=1;strokeColor=default;align=center;verticalAlign=middle;fontFamily=Helvetica;fontSize=12;fontColor=default;fillColor=default;" vertex="1" parent="1">
          <mxGeometry x="-1204" y="1091" width="80" height="80" as="geometry" />
        </mxCell>
        <mxCell id="oj4KhTdb1La-5M6QT8ON-101" style="edgeStyle=orthogonalEdgeStyle;rounded=0;orthogonalLoop=1;jettySize=auto;html=1;fontFamily=Helvetica;fontSize=12;fontColor=default;" edge="1" parent="1" source="oj4KhTdb1La-5M6QT8ON-97" target="oj4KhTdb1La-5M6QT8ON-102">
          <mxGeometry relative="1" as="geometry">
            <mxPoint x="-983" y="1210" as="targetPoint" />
          </mxGeometry>
        </mxCell>
        <mxCell id="oj4KhTdb1La-5M6QT8ON-97" value="IF = N" style="rhombus;whiteSpace=wrap;html=1;strokeColor=default;align=center;verticalAlign=middle;fontFamily=Helvetica;fontSize=12;fontColor=default;fillColor=default;" vertex="1" parent="1">
          <mxGeometry x="-1023" y="1091" width="80" height="80" as="geometry" />
        </mxCell>
        <mxCell id="oj4KhTdb1La-5M6QT8ON-100" value="Ouput :&lt;div&gt;&quot;Tiket berhasil&lt;/div&gt;&lt;div&gt;dihapus&quot;&lt;/div&gt;" style="shape=parallelogram;perimeter=parallelogramPerimeter;whiteSpace=wrap;html=1;fixedSize=1;strokeColor=default;align=center;verticalAlign=middle;fontFamily=Helvetica;fontSize=12;fontColor=default;fillColor=default;" vertex="1" parent="1">
          <mxGeometry x="-1224" y="1210" width="120" height="60" as="geometry" />
        </mxCell>
        <mxCell id="oj4KhTdb1La-5M6QT8ON-115" style="edgeStyle=orthogonalEdgeStyle;rounded=0;orthogonalLoop=1;jettySize=auto;html=1;entryX=0.5;entryY=0;entryDx=0;entryDy=0;fontFamily=Helvetica;fontSize=12;fontColor=default;" edge="1" parent="1" source="oj4KhTdb1La-5M6QT8ON-102" target="oj4KhTdb1La-5M6QT8ON-114">
          <mxGeometry relative="1" as="geometry" />
        </mxCell>
        <mxCell id="oj4KhTdb1La-5M6QT8ON-102" value="Output :&lt;div&gt;&quot;Penghapusan&amp;nbsp;&lt;/div&gt;&lt;div&gt;tiket di batalkan&quot;&lt;/div&gt;" style="shape=parallelogram;perimeter=parallelogramPerimeter;whiteSpace=wrap;html=1;fixedSize=1;strokeColor=default;align=center;verticalAlign=middle;fontFamily=Helvetica;fontSize=12;fontColor=default;fillColor=default;" vertex="1" parent="1">
          <mxGeometry x="-1043" y="1210" width="120" height="60" as="geometry" />
        </mxCell>
        <mxCell id="oj4KhTdb1La-5M6QT8ON-105" style="edgeStyle=orthogonalEdgeStyle;rounded=0;orthogonalLoop=1;jettySize=auto;html=1;fontFamily=Helvetica;fontSize=12;fontColor=default;" edge="1" parent="1" source="oj4KhTdb1La-5M6QT8ON-104" target="oj4KhTdb1La-5M6QT8ON-107">
          <mxGeometry relative="1" as="geometry">
            <mxPoint x="-800" y="820" as="targetPoint" />
          </mxGeometry>
        </mxCell>
        <mxCell id="oj4KhTdb1La-5M6QT8ON-108" style="edgeStyle=orthogonalEdgeStyle;rounded=0;orthogonalLoop=1;jettySize=auto;html=1;fontFamily=Helvetica;fontSize=12;fontColor=default;" edge="1" parent="1" source="oj4KhTdb1La-5M6QT8ON-104" target="oj4KhTdb1La-5M6QT8ON-109">
          <mxGeometry relative="1" as="geometry">
            <mxPoint x="-620" y="710" as="targetPoint" />
          </mxGeometry>
        </mxCell>
        <mxCell id="oj4KhTdb1La-5M6QT8ON-104" value="IF = 5" style="rhombus;whiteSpace=wrap;html=1;strokeColor=default;align=center;verticalAlign=middle;fontFamily=Helvetica;fontSize=12;fontColor=default;fillColor=default;" vertex="1" parent="1">
          <mxGeometry x="-840" y="670" width="80" height="80" as="geometry" />
        </mxCell>
        <mxCell id="oj4KhTdb1La-5M6QT8ON-117" style="edgeStyle=orthogonalEdgeStyle;rounded=0;orthogonalLoop=1;jettySize=auto;html=1;entryX=0.5;entryY=0;entryDx=0;entryDy=0;fontFamily=Helvetica;fontSize=12;fontColor=default;" edge="1" parent="1" source="oj4KhTdb1La-5M6QT8ON-107" target="oj4KhTdb1La-5M6QT8ON-116">
          <mxGeometry relative="1" as="geometry" />
        </mxCell>
        <mxCell id="oj4KhTdb1La-5M6QT8ON-107" value="Output :&amp;nbsp;&lt;div&gt;Menampilkan&amp;nbsp;&lt;/div&gt;&lt;div&gt;laporan&lt;/div&gt;&lt;div&gt;penjualan&quot;&lt;/div&gt;" style="shape=parallelogram;perimeter=parallelogramPerimeter;whiteSpace=wrap;html=1;fixedSize=1;strokeColor=default;align=center;verticalAlign=middle;fontFamily=Helvetica;fontSize=12;fontColor=default;fillColor=default;" vertex="1" parent="1">
          <mxGeometry x="-865" y="790" width="130" height="70" as="geometry" />
        </mxCell>
        <mxCell id="oj4KhTdb1La-5M6QT8ON-110" style="edgeStyle=orthogonalEdgeStyle;rounded=0;orthogonalLoop=1;jettySize=auto;html=1;fontFamily=Helvetica;fontSize=12;fontColor=default;" edge="1" parent="1" source="oj4KhTdb1La-5M6QT8ON-109" target="oj4KhTdb1La-5M6QT8ON-111">
          <mxGeometry relative="1" as="geometry">
            <mxPoint x="-620" y="800" as="targetPoint" />
          </mxGeometry>
        </mxCell>
        <mxCell id="oj4KhTdb1La-5M6QT8ON-121" style="edgeStyle=orthogonalEdgeStyle;rounded=0;orthogonalLoop=1;jettySize=auto;html=1;fontFamily=Helvetica;fontSize=12;fontColor=default;" edge="1" parent="1" source="oj4KhTdb1La-5M6QT8ON-109" target="oj4KhTdb1La-5M6QT8ON-122">
          <mxGeometry relative="1" as="geometry">
            <mxPoint x="-430" y="770" as="targetPoint" />
          </mxGeometry>
        </mxCell>
        <mxCell id="oj4KhTdb1La-5M6QT8ON-109" value="IF = 0" style="rhombus;whiteSpace=wrap;html=1;strokeColor=default;align=center;verticalAlign=middle;fontFamily=Helvetica;fontSize=12;fontColor=default;fillColor=default;" vertex="1" parent="1">
          <mxGeometry x="-660" y="670" width="80" height="80" as="geometry" />
        </mxCell>
        <mxCell id="oj4KhTdb1La-5M6QT8ON-119" style="edgeStyle=orthogonalEdgeStyle;rounded=0;orthogonalLoop=1;jettySize=auto;html=1;fontFamily=Helvetica;fontSize=12;fontColor=default;" edge="1" parent="1" source="oj4KhTdb1La-5M6QT8ON-111" target="oj4KhTdb1La-5M6QT8ON-120">
          <mxGeometry relative="1" as="geometry">
            <mxPoint x="-620" y="900" as="targetPoint" />
          </mxGeometry>
        </mxCell>
        <mxCell id="oj4KhTdb1La-5M6QT8ON-111" value="Output :&lt;div&gt;&quot;Kembali kemenu&lt;/div&gt;&lt;div&gt;uatama&quot;&lt;/div&gt;" style="shape=parallelogram;perimeter=parallelogramPerimeter;whiteSpace=wrap;html=1;fixedSize=1;strokeColor=default;align=center;verticalAlign=middle;fontFamily=Helvetica;fontSize=12;fontColor=default;fillColor=default;" vertex="1" parent="1">
          <mxGeometry x="-680" y="790" width="120" height="60" as="geometry" />
        </mxCell>
        <mxCell id="oj4KhTdb1La-5M6QT8ON-146" style="edgeStyle=orthogonalEdgeStyle;rounded=0;orthogonalLoop=1;jettySize=auto;html=1;fontFamily=Helvetica;fontSize=12;fontColor=default;entryX=0.959;entryY=0.456;entryDx=0;entryDy=0;entryPerimeter=0;" edge="1" parent="1" source="oj4KhTdb1La-5M6QT8ON-112" target="sGkwqurIWdbV0Utr4BWg-6">
          <mxGeometry relative="1" as="geometry">
            <mxPoint x="-2620" y="460" as="targetPoint" />
            <Array as="points">
              <mxPoint x="-1172" y="1410" />
              <mxPoint x="-290" y="1410" />
              <mxPoint x="-290" y="469" />
            </Array>
          </mxGeometry>
        </mxCell>
        <mxCell id="oj4KhTdb1La-5M6QT8ON-112" value="Input :&lt;div&gt;&quot;Tekan tombol&lt;/div&gt;&lt;div&gt;apapun untuk&amp;nbsp;&lt;/div&gt;&lt;div&gt;kembali ke menu&lt;/div&gt;&lt;div&gt;admin&quot;&lt;/div&gt;" style="shape=parallelogram;perimeter=parallelogramPerimeter;whiteSpace=wrap;html=1;fixedSize=1;strokeColor=default;align=center;verticalAlign=middle;fontFamily=Helvetica;fontSize=12;fontColor=default;fillColor=default;" vertex="1" parent="1">
          <mxGeometry x="-1237" y="1310" width="130" height="80" as="geometry" />
        </mxCell>
        <mxCell id="oj4KhTdb1La-5M6QT8ON-113" style="edgeStyle=orthogonalEdgeStyle;rounded=0;orthogonalLoop=1;jettySize=auto;html=1;entryX=0.561;entryY=-0.031;entryDx=0;entryDy=0;entryPerimeter=0;fontFamily=Helvetica;fontSize=12;fontColor=default;" edge="1" parent="1" source="oj4KhTdb1La-5M6QT8ON-100" target="oj4KhTdb1La-5M6QT8ON-112">
          <mxGeometry relative="1" as="geometry" />
        </mxCell>
        <mxCell id="oj4KhTdb1La-5M6QT8ON-145" style="edgeStyle=orthogonalEdgeStyle;rounded=0;orthogonalLoop=1;jettySize=auto;html=1;fontFamily=Helvetica;fontSize=12;fontColor=default;entryX=0.93;entryY=0.578;entryDx=0;entryDy=0;entryPerimeter=0;" edge="1" parent="1" source="oj4KhTdb1La-5M6QT8ON-114" target="sGkwqurIWdbV0Utr4BWg-6">
          <mxGeometry relative="1" as="geometry">
            <mxPoint x="-2460" y="410" as="targetPoint" />
            <Array as="points">
              <mxPoint x="-300" y="1350" />
              <mxPoint x="-300" y="485" />
            </Array>
          </mxGeometry>
        </mxCell>
        <mxCell id="oj4KhTdb1La-5M6QT8ON-114" value="Input :&lt;div&gt;&quot;Tekan tombol&lt;/div&gt;&lt;div&gt;apapun untuk&amp;nbsp;&lt;/div&gt;&lt;div&gt;kembali ke menu&lt;/div&gt;&lt;div&gt;admin&quot;&lt;/div&gt;" style="shape=parallelogram;perimeter=parallelogramPerimeter;whiteSpace=wrap;html=1;fixedSize=1;strokeColor=default;align=center;verticalAlign=middle;fontFamily=Helvetica;fontSize=12;fontColor=default;fillColor=default;" vertex="1" parent="1">
          <mxGeometry x="-1048" y="1310" width="130" height="80" as="geometry" />
        </mxCell>
        <mxCell id="oj4KhTdb1La-5M6QT8ON-144" style="edgeStyle=orthogonalEdgeStyle;rounded=0;orthogonalLoop=1;jettySize=auto;html=1;fontFamily=Helvetica;fontSize=12;fontColor=default;entryX=1;entryY=0.75;entryDx=0;entryDy=0;" edge="1" parent="1" source="oj4KhTdb1La-5M6QT8ON-116" target="sGkwqurIWdbV0Utr4BWg-6">
          <mxGeometry relative="1" as="geometry">
            <mxPoint x="-2480" y="470" as="targetPoint" />
            <Array as="points">
              <mxPoint x="-320" y="970" />
              <mxPoint x="-320" y="502" />
            </Array>
          </mxGeometry>
        </mxCell>
        <mxCell id="oj4KhTdb1La-5M6QT8ON-116" value="Input :&lt;div&gt;&quot;Tekan tombol&lt;/div&gt;&lt;div&gt;apapun untuk&amp;nbsp;&lt;/div&gt;&lt;div&gt;kembali ke menu&lt;/div&gt;&lt;div&gt;admin&quot;&lt;/div&gt;" style="shape=parallelogram;perimeter=parallelogramPerimeter;whiteSpace=wrap;html=1;fixedSize=1;strokeColor=default;align=center;verticalAlign=middle;fontFamily=Helvetica;fontSize=12;fontColor=default;fillColor=default;" vertex="1" parent="1">
          <mxGeometry x="-865" y="900" width="130" height="80" as="geometry" />
        </mxCell>
        <mxCell id="oj4KhTdb1La-5M6QT8ON-120" value="Return" style="rounded=1;whiteSpace=wrap;html=1;strokeColor=default;align=center;verticalAlign=middle;fontFamily=Helvetica;fontSize=12;fontColor=default;fillColor=default;arcSize=50;" vertex="1" parent="1">
          <mxGeometry x="-680" y="870" width="120" height="30" as="geometry" />
        </mxCell>
        <mxCell id="oj4KhTdb1La-5M6QT8ON-124" style="edgeStyle=orthogonalEdgeStyle;rounded=0;orthogonalLoop=1;jettySize=auto;html=1;entryX=0.5;entryY=0;entryDx=0;entryDy=0;fontFamily=Helvetica;fontSize=12;fontColor=default;" edge="1" parent="1" source="oj4KhTdb1La-5M6QT8ON-122" target="oj4KhTdb1La-5M6QT8ON-123">
          <mxGeometry relative="1" as="geometry" />
        </mxCell>
        <mxCell id="oj4KhTdb1La-5M6QT8ON-122" value="Output :&lt;div&gt;&quot;Pilihan tidak&lt;/div&gt;&lt;div&gt;valid. Silahkan&lt;/div&gt;&lt;div&gt;coba lagi&quot;&lt;/div&gt;" style="shape=parallelogram;perimeter=parallelogramPerimeter;whiteSpace=wrap;html=1;fixedSize=1;strokeColor=default;align=center;verticalAlign=middle;fontFamily=Helvetica;fontSize=12;fontColor=default;fillColor=default;" vertex="1" parent="1">
          <mxGeometry x="-490" y="770" width="120" height="60" as="geometry" />
        </mxCell>
        <mxCell id="oj4KhTdb1La-5M6QT8ON-143" style="edgeStyle=orthogonalEdgeStyle;rounded=0;orthogonalLoop=1;jettySize=auto;html=1;fontFamily=Helvetica;fontSize=12;fontColor=default;entryX=0.889;entryY=0.814;entryDx=0;entryDy=0;entryPerimeter=0;" edge="1" parent="1" source="oj4KhTdb1La-5M6QT8ON-123" target="sGkwqurIWdbV0Utr4BWg-6">
          <mxGeometry relative="1" as="geometry">
            <mxPoint x="-2310" y="520" as="targetPoint" />
            <Array as="points">
              <mxPoint x="-340" y="913" />
              <mxPoint x="-340" y="516" />
            </Array>
          </mxGeometry>
        </mxCell>
        <mxCell id="oj4KhTdb1La-5M6QT8ON-123" value="Input :&lt;div&gt;&quot;Tekan tombol&lt;/div&gt;&lt;div&gt;apapun untuk&amp;nbsp;&lt;/div&gt;&lt;div&gt;kembali ke menu&lt;/div&gt;&lt;div&gt;admin&quot;&lt;/div&gt;" style="shape=parallelogram;perimeter=parallelogramPerimeter;whiteSpace=wrap;html=1;fixedSize=1;strokeColor=default;align=center;verticalAlign=middle;fontFamily=Helvetica;fontSize=12;fontColor=default;fillColor=default;" vertex="1" parent="1">
          <mxGeometry x="-495" y="873" width="130" height="80" as="geometry" />
        </mxCell>
        <mxCell id="oj4KhTdb1La-5M6QT8ON-125" value="False" style="text;html=1;align=center;verticalAlign=middle;whiteSpace=wrap;rounded=0;fontFamily=Helvetica;fontSize=12;fontColor=default;" vertex="1" parent="1">
          <mxGeometry x="-540" y="680" width="60" height="30" as="geometry" />
        </mxCell>
        <mxCell id="oj4KhTdb1La-5M6QT8ON-134" style="edgeStyle=orthogonalEdgeStyle;rounded=0;orthogonalLoop=1;jettySize=auto;html=1;entryX=-0.004;entryY=0.95;entryDx=0;entryDy=0;entryPerimeter=0;fontFamily=Helvetica;fontSize=12;fontColor=default;" edge="1" parent="1" source="1yGgFdU1QpiOlpm2M0v_-12" target="sGkwqurIWdbV0Utr4BWg-6">
          <mxGeometry relative="1" as="geometry">
            <Array as="points">
              <mxPoint x="-3030" y="1225" />
              <mxPoint x="-3030" y="534" />
            </Array>
          </mxGeometry>
        </mxCell>
        <mxCell id="oj4KhTdb1La-5M6QT8ON-135" style="edgeStyle=orthogonalEdgeStyle;rounded=0;orthogonalLoop=1;jettySize=auto;html=1;entryX=0.006;entryY=0.896;entryDx=0;entryDy=0;entryPerimeter=0;fontFamily=Helvetica;fontSize=12;fontColor=default;" edge="1" parent="1" source="1yGgFdU1QpiOlpm2M0v_-23" target="sGkwqurIWdbV0Utr4BWg-6">
          <mxGeometry relative="1" as="geometry">
            <Array as="points">
              <mxPoint x="-3040" y="1510" />
              <mxPoint x="-3040" y="526" />
            </Array>
          </mxGeometry>
        </mxCell>
        <mxCell id="oj4KhTdb1La-5M6QT8ON-138" style="edgeStyle=orthogonalEdgeStyle;rounded=0;orthogonalLoop=1;jettySize=auto;html=1;fontFamily=Helvetica;fontSize=12;fontColor=default;" edge="1" parent="1" source="oj4KhTdb1La-5M6QT8ON-21">
          <mxGeometry relative="1" as="geometry">
            <mxPoint x="-3005" y="490" as="targetPoint" />
            <Array as="points">
              <mxPoint x="-2260" y="1580" />
              <mxPoint x="-3070" y="1580" />
              <mxPoint x="-3070" y="490" />
            </Array>
          </mxGeometry>
        </mxCell>
        <mxCell id="oj4KhTdb1La-5M6QT8ON-141" style="edgeStyle=orthogonalEdgeStyle;rounded=0;orthogonalLoop=1;jettySize=auto;html=1;entryX=0.077;entryY=0.197;entryDx=0;entryDy=0;entryPerimeter=0;fontFamily=Helvetica;fontSize=12;fontColor=default;" edge="1" parent="1" source="oj4KhTdb1La-5M6QT8ON-48" target="sGkwqurIWdbV0Utr4BWg-6">
          <mxGeometry relative="1" as="geometry">
            <Array as="points">
              <mxPoint x="-1750" y="1610" />
              <mxPoint x="-3090" y="1610" />
              <mxPoint x="-3090" y="436" />
            </Array>
          </mxGeometry>
        </mxCell>
      </root>
    </mxGraphModel>
  </diagram>
  <diagram id="FKyVAdFQXa005Mw1nKRt" name="Halaman-3">
    <mxGraphModel dx="2563" dy="1043" grid="1" gridSize="10" guides="1" tooltips="1" connect="1" arrows="1" fold="1" page="1" pageScale="1" pageWidth="3300" pageHeight="4681" math="0" shadow="0">
      <root>
        <mxCell id="0" />
        <mxCell id="1" parent="0" />
        <mxCell id="0crkZ7rFL3NxM54iNzPr-1" style="edgeStyle=orthogonalEdgeStyle;rounded=0;orthogonalLoop=1;jettySize=auto;html=1;fontFamily=Helvetica;fontSize=12;fontColor=default;" edge="1" parent="1" source="oyXvEoW2yf8XsUBEbvsk-1" target="0crkZ7rFL3NxM54iNzPr-2">
          <mxGeometry relative="1" as="geometry">
            <mxPoint x="420" y="210" as="targetPoint" />
          </mxGeometry>
        </mxCell>
        <mxCell id="oyXvEoW2yf8XsUBEbvsk-1" value="B" style="shape=offPageConnector;whiteSpace=wrap;html=1;fillColor=light-dark(#FFFFFF,#660066);" vertex="1" parent="1">
          <mxGeometry x="380" y="50" width="80" height="80" as="geometry" />
        </mxCell>
        <mxCell id="ih4TXm6Po24zARIEFaUi-2" style="edgeStyle=orthogonalEdgeStyle;rounded=0;orthogonalLoop=1;jettySize=auto;html=1;entryX=0.5;entryY=0;entryDx=0;entryDy=0;fontFamily=Helvetica;fontSize=12;fontColor=default;" edge="1" parent="1" source="0crkZ7rFL3NxM54iNzPr-2" target="ih4TXm6Po24zARIEFaUi-1">
          <mxGeometry relative="1" as="geometry" />
        </mxCell>
        <mxCell id="0crkZ7rFL3NxM54iNzPr-2" value="Output :&lt;div&gt;&quot;Selamat datang&lt;/div&gt;&lt;div&gt;(nama user)&quot;&lt;/div&gt;" style="shape=parallelogram;perimeter=parallelogramPerimeter;whiteSpace=wrap;html=1;fixedSize=1;strokeColor=default;align=center;verticalAlign=middle;fontFamily=Helvetica;fontSize=12;fontColor=default;fillColor=default;" vertex="1" parent="1">
          <mxGeometry x="360" y="170" width="120" height="60" as="geometry" />
        </mxCell>
        <mxCell id="ih4TXm6Po24zARIEFaUi-4" style="edgeStyle=orthogonalEdgeStyle;rounded=0;orthogonalLoop=1;jettySize=auto;html=1;entryX=0.5;entryY=0;entryDx=0;entryDy=0;fontFamily=Helvetica;fontSize=12;fontColor=default;" edge="1" parent="1" source="ih4TXm6Po24zARIEFaUi-1" target="ih4TXm6Po24zARIEFaUi-3">
          <mxGeometry relative="1" as="geometry" />
        </mxCell>
        <mxCell id="ih4TXm6Po24zARIEFaUi-1" value="Input :&amp;nbsp;&lt;div&gt;&quot;Tekan tombol&lt;/div&gt;&lt;div&gt;apapun untuk masuk&lt;/div&gt;&lt;div&gt;ke Menu user....&quot;&lt;/div&gt;" style="shape=parallelogram;perimeter=parallelogramPerimeter;whiteSpace=wrap;html=1;fixedSize=1;" vertex="1" parent="1">
          <mxGeometry x="350" y="270" width="140" height="90" as="geometry" />
        </mxCell>
        <mxCell id="ih4TXm6Po24zARIEFaUi-5" style="edgeStyle=orthogonalEdgeStyle;rounded=0;orthogonalLoop=1;jettySize=auto;html=1;fontFamily=Helvetica;fontSize=12;fontColor=default;" edge="1" parent="1" source="ih4TXm6Po24zARIEFaUi-3" target="ih4TXm6Po24zARIEFaUi-6">
          <mxGeometry relative="1" as="geometry">
            <mxPoint x="420" y="550" as="targetPoint" />
          </mxGeometry>
        </mxCell>
        <mxCell id="ih4TXm6Po24zARIEFaUi-3" value="Menu User :&lt;div&gt;1. Lihat Tiket&lt;/div&gt;&lt;div&gt;2. Cari dan&amp;nbsp;&lt;/div&gt;&lt;div&gt;Pesan Tiket&lt;/div&gt;&lt;div&gt;3. Riwayat Pesanan&lt;/div&gt;&lt;div&gt;0. Logout&lt;/div&gt;" style="shape=parallelogram;perimeter=parallelogramPerimeter;whiteSpace=wrap;html=1;fixedSize=1;" vertex="1" parent="1">
          <mxGeometry x="340" y="400" width="160" height="100" as="geometry" />
        </mxCell>
        <mxCell id="56In_7613BVzAWbOjXbl-44" style="edgeStyle=orthogonalEdgeStyle;rounded=0;orthogonalLoop=1;jettySize=auto;html=1;entryX=0.5;entryY=0;entryDx=0;entryDy=0;fontFamily=Helvetica;fontSize=12;fontColor=default;" edge="1" parent="1" source="ih4TXm6Po24zARIEFaUi-6" target="56In_7613BVzAWbOjXbl-2">
          <mxGeometry relative="1" as="geometry" />
        </mxCell>
        <mxCell id="ih4TXm6Po24zARIEFaUi-6" value="Input :&lt;div&gt;&quot;Pilih menu&lt;/div&gt;&lt;div&gt;1,2,3,0&quot;&lt;/div&gt;" style="shape=parallelogram;perimeter=parallelogramPerimeter;whiteSpace=wrap;html=1;fixedSize=1;strokeColor=default;align=center;verticalAlign=middle;fontFamily=Helvetica;fontSize=12;fontColor=default;fillColor=default;" vertex="1" parent="1">
          <mxGeometry x="360" y="540" width="120" height="60" as="geometry" />
        </mxCell>
        <mxCell id="56In_7613BVzAWbOjXbl-1" style="edgeStyle=orthogonalEdgeStyle;rounded=0;orthogonalLoop=1;jettySize=auto;html=1;" edge="1" parent="1" source="56In_7613BVzAWbOjXbl-2" target="56In_7613BVzAWbOjXbl-4">
          <mxGeometry relative="1" as="geometry">
            <mxPoint x="419" y="780" as="targetPoint" />
          </mxGeometry>
        </mxCell>
        <mxCell id="ujwJgOpho_-NArfuX44Y-1" style="edgeStyle=orthogonalEdgeStyle;rounded=0;orthogonalLoop=1;jettySize=auto;html=1;fontFamily=Helvetica;fontSize=12;fontColor=default;" edge="1" parent="1" source="56In_7613BVzAWbOjXbl-2" target="ujwJgOpho_-NArfuX44Y-2">
          <mxGeometry relative="1" as="geometry">
            <mxPoint x="1600" y="690" as="targetPoint" />
          </mxGeometry>
        </mxCell>
        <mxCell id="56In_7613BVzAWbOjXbl-2" value="IF = 1" style="rhombus;whiteSpace=wrap;html=1;" vertex="1" parent="1">
          <mxGeometry x="379" y="650" width="80" height="80" as="geometry" />
        </mxCell>
        <mxCell id="56In_7613BVzAWbOjXbl-3" style="edgeStyle=orthogonalEdgeStyle;rounded=0;orthogonalLoop=1;jettySize=auto;html=1;" edge="1" parent="1" source="56In_7613BVzAWbOjXbl-4" target="56In_7613BVzAWbOjXbl-6">
          <mxGeometry relative="1" as="geometry">
            <mxPoint x="419" y="960" as="targetPoint" />
          </mxGeometry>
        </mxCell>
        <mxCell id="56In_7613BVzAWbOjXbl-4" value="Lihat Tiket&lt;div&gt;1. Tampilkan Langsung sesuai (ID Awal)&lt;/div&gt;&lt;div&gt;2. Urutkan Bedasarkan Harga&lt;/div&gt;&lt;div&gt;3. Urutkan Bedasarkan Nama&lt;/div&gt;" style="shape=parallelogram;perimeter=parallelogramPerimeter;whiteSpace=wrap;html=1;fixedSize=1;" vertex="1" parent="1">
          <mxGeometry x="339" y="772" width="160" height="130" as="geometry" />
        </mxCell>
        <mxCell id="56In_7613BVzAWbOjXbl-5" style="edgeStyle=orthogonalEdgeStyle;rounded=0;orthogonalLoop=1;jettySize=auto;html=1;" edge="1" parent="1" source="56In_7613BVzAWbOjXbl-6" target="56In_7613BVzAWbOjXbl-9">
          <mxGeometry relative="1" as="geometry">
            <mxPoint x="419" y="1060" as="targetPoint" />
          </mxGeometry>
        </mxCell>
        <mxCell id="56In_7613BVzAWbOjXbl-6" value="Input :&lt;div&gt;&quot;pilih Lihat Tiket&lt;/div&gt;&lt;div&gt;1,2,3&quot;&lt;/div&gt;" style="shape=parallelogram;perimeter=parallelogramPerimeter;whiteSpace=wrap;html=1;fixedSize=1;" vertex="1" parent="1">
          <mxGeometry x="359" y="940" width="120" height="60" as="geometry" />
        </mxCell>
        <mxCell id="56In_7613BVzAWbOjXbl-7" style="edgeStyle=orthogonalEdgeStyle;rounded=0;orthogonalLoop=1;jettySize=auto;html=1;" edge="1" parent="1" source="56In_7613BVzAWbOjXbl-9" target="56In_7613BVzAWbOjXbl-10">
          <mxGeometry relative="1" as="geometry">
            <mxPoint x="419" y="1170" as="targetPoint" />
          </mxGeometry>
        </mxCell>
        <mxCell id="56In_7613BVzAWbOjXbl-8" style="edgeStyle=orthogonalEdgeStyle;rounded=0;orthogonalLoop=1;jettySize=auto;html=1;" edge="1" parent="1" source="56In_7613BVzAWbOjXbl-9" target="56In_7613BVzAWbOjXbl-13">
          <mxGeometry relative="1" as="geometry">
            <mxPoint x="589" y="1080" as="targetPoint" />
          </mxGeometry>
        </mxCell>
        <mxCell id="56In_7613BVzAWbOjXbl-9" value="IF = 1" style="rhombus;whiteSpace=wrap;html=1;" vertex="1" parent="1">
          <mxGeometry x="379" y="1040" width="80" height="80" as="geometry" />
        </mxCell>
        <mxCell id="WKa2GtOvP1qAGohvCVMn-1" style="edgeStyle=orthogonalEdgeStyle;rounded=0;orthogonalLoop=1;jettySize=auto;html=1;fontFamily=Helvetica;fontSize=12;fontColor=default;entryX=0.008;entryY=0.819;entryDx=0;entryDy=0;entryPerimeter=0;" edge="1" parent="1" source="56In_7613BVzAWbOjXbl-10" target="ih4TXm6Po24zARIEFaUi-3">
          <mxGeometry relative="1" as="geometry">
            <mxPoint x="279.9999999999998" y="710" as="targetPoint" />
            <Array as="points">
              <mxPoint x="330" y="1205" />
              <mxPoint x="330" y="482" />
            </Array>
          </mxGeometry>
        </mxCell>
        <mxCell id="56In_7613BVzAWbOjXbl-10" value="Output :&amp;nbsp;&lt;div&gt;&quot;Menampilkan&lt;/div&gt;&lt;div&gt;tiket sesuai&amp;nbsp;&lt;/div&gt;&lt;div&gt;dengan urutan&lt;/div&gt;&lt;div&gt;saat ini&quot;&lt;/div&gt;" style="shape=parallelogram;perimeter=parallelogramPerimeter;whiteSpace=wrap;html=1;fixedSize=1;" vertex="1" parent="1">
          <mxGeometry x="349" y="1160" width="140" height="90" as="geometry" />
        </mxCell>
        <mxCell id="56In_7613BVzAWbOjXbl-11" style="edgeStyle=orthogonalEdgeStyle;rounded=0;orthogonalLoop=1;jettySize=auto;html=1;" edge="1" parent="1" source="56In_7613BVzAWbOjXbl-13" target="56In_7613BVzAWbOjXbl-15">
          <mxGeometry relative="1" as="geometry">
            <mxPoint x="599" y="1180" as="targetPoint" />
          </mxGeometry>
        </mxCell>
        <mxCell id="56In_7613BVzAWbOjXbl-12" style="edgeStyle=orthogonalEdgeStyle;rounded=0;orthogonalLoop=1;jettySize=auto;html=1;fontFamily=Helvetica;fontSize=12;fontColor=default;" edge="1" parent="1" source="56In_7613BVzAWbOjXbl-13" target="56In_7613BVzAWbOjXbl-29">
          <mxGeometry relative="1" as="geometry">
            <mxPoint x="1019" y="1080.0000000000002" as="targetPoint" />
          </mxGeometry>
        </mxCell>
        <mxCell id="56In_7613BVzAWbOjXbl-13" value="IF = 2" style="rhombus;whiteSpace=wrap;html=1;" vertex="1" parent="1">
          <mxGeometry x="559" y="1040" width="80" height="80" as="geometry" />
        </mxCell>
        <mxCell id="56In_7613BVzAWbOjXbl-14" style="edgeStyle=orthogonalEdgeStyle;rounded=0;orthogonalLoop=1;jettySize=auto;html=1;" edge="1" parent="1" source="56In_7613BVzAWbOjXbl-15" target="56In_7613BVzAWbOjXbl-17">
          <mxGeometry relative="1" as="geometry">
            <mxPoint x="599" y="1270" as="targetPoint" />
          </mxGeometry>
        </mxCell>
        <mxCell id="56In_7613BVzAWbOjXbl-15" value="Urutkan Harga&lt;div&gt;a. untuk Ascending&lt;/div&gt;&lt;div&gt;d. untuk Descending&lt;/div&gt;" style="shape=parallelogram;perimeter=parallelogramPerimeter;whiteSpace=wrap;html=1;fixedSize=1;" vertex="1" parent="1">
          <mxGeometry x="529" y="1150" width="140" height="70" as="geometry" />
        </mxCell>
        <mxCell id="56In_7613BVzAWbOjXbl-16" style="edgeStyle=orthogonalEdgeStyle;rounded=0;orthogonalLoop=1;jettySize=auto;html=1;" edge="1" parent="1" source="56In_7613BVzAWbOjXbl-17" target="56In_7613BVzAWbOjXbl-20">
          <mxGeometry relative="1" as="geometry">
            <mxPoint x="599" y="1360" as="targetPoint" />
          </mxGeometry>
        </mxCell>
        <mxCell id="56In_7613BVzAWbOjXbl-17" value="Input :&lt;div&gt;&quot;Urutkan Harga&lt;/div&gt;&lt;div&gt;a,d&quot;&lt;/div&gt;" style="shape=parallelogram;perimeter=parallelogramPerimeter;whiteSpace=wrap;html=1;fixedSize=1;" vertex="1" parent="1">
          <mxGeometry x="539" y="1250" width="120" height="60" as="geometry" />
        </mxCell>
        <mxCell id="56In_7613BVzAWbOjXbl-18" style="edgeStyle=orthogonalEdgeStyle;rounded=0;orthogonalLoop=1;jettySize=auto;html=1;entryX=0.5;entryY=0;entryDx=0;entryDy=0;" edge="1" parent="1" source="56In_7613BVzAWbOjXbl-20" target="56In_7613BVzAWbOjXbl-21">
          <mxGeometry relative="1" as="geometry">
            <mxPoint x="598.9999999999998" y="1450" as="targetPoint" />
          </mxGeometry>
        </mxCell>
        <mxCell id="56In_7613BVzAWbOjXbl-19" style="edgeStyle=orthogonalEdgeStyle;rounded=0;orthogonalLoop=1;jettySize=auto;html=1;fontFamily=Helvetica;fontSize=12;fontColor=default;" edge="1" parent="1" source="56In_7613BVzAWbOjXbl-20" target="56In_7613BVzAWbOjXbl-24">
          <mxGeometry relative="1" as="geometry">
            <mxPoint x="739" y="1379.9999999999998" as="targetPoint" />
          </mxGeometry>
        </mxCell>
        <mxCell id="56In_7613BVzAWbOjXbl-20" value="IF = a" style="rhombus;whiteSpace=wrap;html=1;" vertex="1" parent="1">
          <mxGeometry x="559" y="1340" width="80" height="80" as="geometry" />
        </mxCell>
        <mxCell id="WKa2GtOvP1qAGohvCVMn-2" style="edgeStyle=orthogonalEdgeStyle;rounded=0;orthogonalLoop=1;jettySize=auto;html=1;fontFamily=Helvetica;fontSize=12;fontColor=default;entryX=0.025;entryY=0.686;entryDx=0;entryDy=0;entryPerimeter=0;" edge="1" parent="1" source="56In_7613BVzAWbOjXbl-21" target="ih4TXm6Po24zARIEFaUi-3">
          <mxGeometry relative="1" as="geometry">
            <mxPoint x="260" y="530" as="targetPoint" />
            <Array as="points">
              <mxPoint x="310" y="1501" />
              <mxPoint x="310" y="469" />
            </Array>
          </mxGeometry>
        </mxCell>
        <mxCell id="56In_7613BVzAWbOjXbl-21" value="Output :&lt;div&gt;&quot;tiket diurutkan bedasarkan harga&lt;/div&gt;&lt;div&gt;(menggunakan Ascending&quot;&lt;/div&gt;" style="shape=parallelogram;perimeter=parallelogramPerimeter;whiteSpace=wrap;html=1;fixedSize=1;" vertex="1" parent="1">
          <mxGeometry x="529" y="1461" width="140" height="80" as="geometry" />
        </mxCell>
        <mxCell id="56In_7613BVzAWbOjXbl-22" style="edgeStyle=orthogonalEdgeStyle;rounded=0;orthogonalLoop=1;jettySize=auto;html=1;entryX=0.43;entryY=0.006;entryDx=0;entryDy=0;fontFamily=Helvetica;fontSize=12;fontColor=default;entryPerimeter=0;" edge="1" parent="1" source="56In_7613BVzAWbOjXbl-24" target="56In_7613BVzAWbOjXbl-25">
          <mxGeometry relative="1" as="geometry">
            <mxPoint x="769" y="1450" as="targetPoint" />
          </mxGeometry>
        </mxCell>
        <mxCell id="56In_7613BVzAWbOjXbl-23" style="edgeStyle=orthogonalEdgeStyle;rounded=0;orthogonalLoop=1;jettySize=auto;html=1;fontFamily=Helvetica;fontSize=12;fontColor=default;" edge="1" parent="1" source="56In_7613BVzAWbOjXbl-24" target="56In_7613BVzAWbOjXbl-26">
          <mxGeometry relative="1" as="geometry">
            <mxPoint x="919" y="1450" as="targetPoint" />
          </mxGeometry>
        </mxCell>
        <mxCell id="56In_7613BVzAWbOjXbl-24" value="IF = d" style="rhombus;whiteSpace=wrap;html=1;strokeColor=default;align=center;verticalAlign=middle;fontFamily=Helvetica;fontSize=12;fontColor=default;fillColor=default;" vertex="1" parent="1">
          <mxGeometry x="729" y="1339.9999999999998" width="80" height="80" as="geometry" />
        </mxCell>
        <mxCell id="WKa2GtOvP1qAGohvCVMn-3" style="edgeStyle=orthogonalEdgeStyle;rounded=0;orthogonalLoop=1;jettySize=auto;html=1;fontFamily=Helvetica;fontSize=12;fontColor=default;entryX=0;entryY=0.5;entryDx=0;entryDy=0;" edge="1" parent="1" source="56In_7613BVzAWbOjXbl-25" target="ih4TXm6Po24zARIEFaUi-3">
          <mxGeometry relative="1" as="geometry">
            <mxPoint x="270" y="480" as="targetPoint" />
            <Array as="points">
              <mxPoint x="779" y="1550" />
              <mxPoint x="300" y="1550" />
              <mxPoint x="300" y="450" />
            </Array>
          </mxGeometry>
        </mxCell>
        <mxCell id="56In_7613BVzAWbOjXbl-25" value="Output :&lt;div&gt;&quot;tiket diurutkan bedasarkan harga&lt;/div&gt;&lt;div&gt;(menggunakan Descending&quot;&lt;/div&gt;" style="shape=parallelogram;perimeter=parallelogramPerimeter;whiteSpace=wrap;html=1;fixedSize=1;" vertex="1" parent="1">
          <mxGeometry x="709" y="1461" width="140" height="80" as="geometry" />
        </mxCell>
        <mxCell id="WKa2GtOvP1qAGohvCVMn-5" style="edgeStyle=orthogonalEdgeStyle;rounded=0;orthogonalLoop=1;jettySize=auto;html=1;fontFamily=Helvetica;fontSize=12;fontColor=default;entryX=0.062;entryY=0.365;entryDx=0;entryDy=0;entryPerimeter=0;exitX=0.5;exitY=1;exitDx=0;exitDy=0;" edge="1" parent="1" source="56In_7613BVzAWbOjXbl-26" target="ih4TXm6Po24zARIEFaUi-3">
          <mxGeometry relative="1" as="geometry">
            <mxPoint x="260.01" y="452.98" as="targetPoint" />
            <mxPoint x="888.9998989898988" y="1373.0103030303032" as="sourcePoint" />
            <Array as="points">
              <mxPoint x="950" y="1520" />
              <mxPoint x="950" y="1560" />
              <mxPoint x="290" y="1560" />
              <mxPoint x="290" y="437" />
            </Array>
          </mxGeometry>
        </mxCell>
        <mxCell id="56In_7613BVzAWbOjXbl-26" value="Output :&lt;div&gt;&quot;Pilihan Tidak&amp;nbsp;&lt;/div&gt;&lt;div&gt;Valid&quot;&lt;/div&gt;" style="shape=parallelogram;perimeter=parallelogramPerimeter;whiteSpace=wrap;html=1;fixedSize=1;strokeColor=default;align=center;verticalAlign=middle;fontFamily=Helvetica;fontSize=12;fontColor=default;fillColor=default;" vertex="1" parent="1">
          <mxGeometry x="889" y="1460" width="120" height="60" as="geometry" />
        </mxCell>
        <mxCell id="56In_7613BVzAWbOjXbl-27" value="False" style="text;html=1;align=center;verticalAlign=middle;whiteSpace=wrap;rounded=0;fontFamily=Helvetica;fontSize=12;fontColor=default;" vertex="1" parent="1">
          <mxGeometry x="829" y="1350" width="60" height="30" as="geometry" />
        </mxCell>
        <mxCell id="56In_7613BVzAWbOjXbl-28" style="edgeStyle=orthogonalEdgeStyle;rounded=0;orthogonalLoop=1;jettySize=auto;html=1;fontFamily=Helvetica;fontSize=12;fontColor=default;" edge="1" parent="1" source="56In_7613BVzAWbOjXbl-29" target="56In_7613BVzAWbOjXbl-31">
          <mxGeometry relative="1" as="geometry" />
        </mxCell>
        <mxCell id="56In_7613BVzAWbOjXbl-29" value="IF = 3" style="rhombus;whiteSpace=wrap;html=1;strokeColor=default;align=center;verticalAlign=middle;fontFamily=Helvetica;fontSize=12;fontColor=default;fillColor=default;" vertex="1" parent="1">
          <mxGeometry x="1049" y="1040.0000000000002" width="80" height="80" as="geometry" />
        </mxCell>
        <mxCell id="56In_7613BVzAWbOjXbl-30" style="edgeStyle=orthogonalEdgeStyle;rounded=0;orthogonalLoop=1;jettySize=auto;html=1;" edge="1" parent="1" source="56In_7613BVzAWbOjXbl-31" target="56In_7613BVzAWbOjXbl-33">
          <mxGeometry relative="1" as="geometry">
            <mxPoint x="1089" y="1270" as="targetPoint" />
          </mxGeometry>
        </mxCell>
        <mxCell id="56In_7613BVzAWbOjXbl-31" value="Urutkan Nama&lt;div&gt;a. untuk Ascending&lt;/div&gt;&lt;div&gt;d. untuk Descending&lt;/div&gt;" style="shape=parallelogram;perimeter=parallelogramPerimeter;whiteSpace=wrap;html=1;fixedSize=1;" vertex="1" parent="1">
          <mxGeometry x="1019" y="1150" width="140" height="70" as="geometry" />
        </mxCell>
        <mxCell id="56In_7613BVzAWbOjXbl-32" style="edgeStyle=orthogonalEdgeStyle;rounded=0;orthogonalLoop=1;jettySize=auto;html=1;" edge="1" parent="1" source="56In_7613BVzAWbOjXbl-33" target="56In_7613BVzAWbOjXbl-36">
          <mxGeometry relative="1" as="geometry">
            <mxPoint x="1089" y="1360" as="targetPoint" />
          </mxGeometry>
        </mxCell>
        <mxCell id="56In_7613BVzAWbOjXbl-33" value="Input :&lt;div&gt;&quot;Urutkan Nama&lt;/div&gt;&lt;div&gt;a,d&quot;&lt;/div&gt;" style="shape=parallelogram;perimeter=parallelogramPerimeter;whiteSpace=wrap;html=1;fixedSize=1;" vertex="1" parent="1">
          <mxGeometry x="1029" y="1250" width="120" height="60" as="geometry" />
        </mxCell>
        <mxCell id="56In_7613BVzAWbOjXbl-34" style="edgeStyle=orthogonalEdgeStyle;rounded=0;orthogonalLoop=1;jettySize=auto;html=1;entryX=0.5;entryY=0;entryDx=0;entryDy=0;" edge="1" parent="1" source="56In_7613BVzAWbOjXbl-36" target="56In_7613BVzAWbOjXbl-37">
          <mxGeometry relative="1" as="geometry">
            <mxPoint x="1089" y="1450" as="targetPoint" />
          </mxGeometry>
        </mxCell>
        <mxCell id="56In_7613BVzAWbOjXbl-35" style="edgeStyle=orthogonalEdgeStyle;rounded=0;orthogonalLoop=1;jettySize=auto;html=1;fontFamily=Helvetica;fontSize=12;fontColor=default;" edge="1" parent="1" source="56In_7613BVzAWbOjXbl-36" target="56In_7613BVzAWbOjXbl-40">
          <mxGeometry relative="1" as="geometry">
            <mxPoint x="1229" y="1379.9999999999998" as="targetPoint" />
          </mxGeometry>
        </mxCell>
        <mxCell id="56In_7613BVzAWbOjXbl-36" value="IF = a" style="rhombus;whiteSpace=wrap;html=1;" vertex="1" parent="1">
          <mxGeometry x="1049" y="1340" width="80" height="80" as="geometry" />
        </mxCell>
        <mxCell id="WKa2GtOvP1qAGohvCVMn-6" style="edgeStyle=orthogonalEdgeStyle;rounded=0;orthogonalLoop=1;jettySize=auto;html=1;fontFamily=Helvetica;fontSize=12;fontColor=default;entryX=0.085;entryY=0.237;entryDx=0;entryDy=0;entryPerimeter=0;exitX=0.5;exitY=1;exitDx=0;exitDy=0;" edge="1" parent="1" source="56In_7613BVzAWbOjXbl-37" target="ih4TXm6Po24zARIEFaUi-3">
          <mxGeometry relative="1" as="geometry">
            <mxPoint x="250" y="443" as="targetPoint" />
            <mxPoint x="1020" y="1440" as="sourcePoint" />
            <Array as="points">
              <mxPoint x="1089" y="1570" />
              <mxPoint x="280" y="1570" />
              <mxPoint x="280" y="424" />
            </Array>
          </mxGeometry>
        </mxCell>
        <mxCell id="56In_7613BVzAWbOjXbl-37" value="Output :&lt;div&gt;&quot;tiket diurutkan bedasarkan nama&lt;/div&gt;&lt;div&gt;(menggunakan Ascending&quot;&lt;/div&gt;" style="shape=parallelogram;perimeter=parallelogramPerimeter;whiteSpace=wrap;html=1;fixedSize=1;" vertex="1" parent="1">
          <mxGeometry x="1019" y="1457" width="140" height="80" as="geometry" />
        </mxCell>
        <mxCell id="56In_7613BVzAWbOjXbl-38" style="edgeStyle=orthogonalEdgeStyle;rounded=0;orthogonalLoop=1;jettySize=auto;html=1;entryX=0.5;entryY=0;entryDx=0;entryDy=0;fontFamily=Helvetica;fontSize=12;fontColor=default;" edge="1" parent="1" source="56In_7613BVzAWbOjXbl-40" target="56In_7613BVzAWbOjXbl-41">
          <mxGeometry relative="1" as="geometry">
            <mxPoint x="1259" y="1450" as="targetPoint" />
          </mxGeometry>
        </mxCell>
        <mxCell id="56In_7613BVzAWbOjXbl-39" style="edgeStyle=orthogonalEdgeStyle;rounded=0;orthogonalLoop=1;jettySize=auto;html=1;fontFamily=Helvetica;fontSize=12;fontColor=default;" edge="1" parent="1" source="56In_7613BVzAWbOjXbl-40" target="56In_7613BVzAWbOjXbl-42">
          <mxGeometry relative="1" as="geometry">
            <mxPoint x="1409" y="1450" as="targetPoint" />
          </mxGeometry>
        </mxCell>
        <mxCell id="56In_7613BVzAWbOjXbl-40" value="IF = d" style="rhombus;whiteSpace=wrap;html=1;strokeColor=default;align=center;verticalAlign=middle;fontFamily=Helvetica;fontSize=12;fontColor=default;fillColor=default;" vertex="1" parent="1">
          <mxGeometry x="1219" y="1339.9999999999998" width="80" height="80" as="geometry" />
        </mxCell>
        <mxCell id="WKa2GtOvP1qAGohvCVMn-7" style="edgeStyle=orthogonalEdgeStyle;rounded=0;orthogonalLoop=1;jettySize=auto;html=1;fontFamily=Helvetica;fontSize=12;fontColor=default;entryX=0;entryY=0;entryDx=0;entryDy=0;" edge="1" parent="1" source="56In_7613BVzAWbOjXbl-41" target="ih4TXm6Po24zARIEFaUi-3">
          <mxGeometry relative="1" as="geometry">
            <mxPoint x="230" y="480" as="targetPoint" />
            <Array as="points">
              <mxPoint x="1259" y="1580" />
              <mxPoint x="270" y="1580" />
              <mxPoint x="270" y="411" />
            </Array>
          </mxGeometry>
        </mxCell>
        <mxCell id="56In_7613BVzAWbOjXbl-41" value="Output :&lt;div&gt;&quot;tiket diurutkan bedasarkan nama&lt;/div&gt;&lt;div&gt;(menggunakan Descending&quot;&lt;/div&gt;" style="shape=parallelogram;perimeter=parallelogramPerimeter;whiteSpace=wrap;html=1;fixedSize=1;" vertex="1" parent="1">
          <mxGeometry x="1189" y="1457" width="140" height="80" as="geometry" />
        </mxCell>
        <mxCell id="WKa2GtOvP1qAGohvCVMn-8" style="edgeStyle=orthogonalEdgeStyle;rounded=0;orthogonalLoop=1;jettySize=auto;html=1;fontFamily=Helvetica;fontSize=12;fontColor=default;entryX=0.109;entryY=0.019;entryDx=0;entryDy=0;entryPerimeter=0;" edge="1" parent="1" source="56In_7613BVzAWbOjXbl-42" target="ih4TXm6Po24zARIEFaUi-3">
          <mxGeometry relative="1" as="geometry">
            <mxPoint x="220" y="520" as="targetPoint" />
            <Array as="points">
              <mxPoint x="1430" y="1600" />
              <mxPoint x="260" y="1600" />
              <mxPoint x="260" y="402" />
            </Array>
          </mxGeometry>
        </mxCell>
        <mxCell id="56In_7613BVzAWbOjXbl-42" value="Output :&lt;div&gt;&quot;Pilihan Tidak&amp;nbsp;&lt;/div&gt;&lt;div&gt;Valid&quot;&lt;/div&gt;" style="shape=parallelogram;perimeter=parallelogramPerimeter;whiteSpace=wrap;html=1;fixedSize=1;strokeColor=default;align=center;verticalAlign=middle;fontFamily=Helvetica;fontSize=12;fontColor=default;fillColor=default;" vertex="1" parent="1">
          <mxGeometry x="1370" y="1460" width="120" height="60" as="geometry" />
        </mxCell>
        <mxCell id="56In_7613BVzAWbOjXbl-43" value="False" style="text;html=1;align=center;verticalAlign=middle;whiteSpace=wrap;rounded=0;fontFamily=Helvetica;fontSize=12;fontColor=default;" vertex="1" parent="1">
          <mxGeometry x="1319" y="1350" width="60" height="30" as="geometry" />
        </mxCell>
        <mxCell id="55cTVk_tad76Ts2iVwFI-1" style="edgeStyle=orthogonalEdgeStyle;rounded=0;orthogonalLoop=1;jettySize=auto;html=1;fontFamily=Helvetica;fontSize=12;fontColor=default;" edge="1" parent="1" source="ujwJgOpho_-NArfuX44Y-2" target="55cTVk_tad76Ts2iVwFI-2">
          <mxGeometry relative="1" as="geometry">
            <mxPoint x="1600" y="809.9999999999998" as="targetPoint" />
          </mxGeometry>
        </mxCell>
        <mxCell id="VTrdACGlTEbYl6ObipoA-9" style="edgeStyle=orthogonalEdgeStyle;rounded=0;orthogonalLoop=1;jettySize=auto;html=1;fontFamily=Helvetica;fontSize=12;fontColor=default;" edge="1" parent="1" source="ujwJgOpho_-NArfuX44Y-2" target="VTrdACGlTEbYl6ObipoA-10">
          <mxGeometry relative="1" as="geometry">
            <mxPoint x="2060" y="690" as="targetPoint" />
          </mxGeometry>
        </mxCell>
        <mxCell id="ujwJgOpho_-NArfuX44Y-2" value="IF = 2" style="rhombus;whiteSpace=wrap;html=1;strokeColor=default;align=center;verticalAlign=middle;fontFamily=Helvetica;fontSize=12;fontColor=default;fillColor=default;" vertex="1" parent="1">
          <mxGeometry x="1560" y="650" width="80" height="80" as="geometry" />
        </mxCell>
        <mxCell id="55cTVk_tad76Ts2iVwFI-3" style="edgeStyle=orthogonalEdgeStyle;rounded=0;orthogonalLoop=1;jettySize=auto;html=1;fontFamily=Helvetica;fontSize=12;fontColor=default;" edge="1" parent="1" source="55cTVk_tad76Ts2iVwFI-2" target="55cTVk_tad76Ts2iVwFI-4">
          <mxGeometry relative="1" as="geometry">
            <mxPoint x="1600" y="910" as="targetPoint" />
          </mxGeometry>
        </mxCell>
        <mxCell id="55cTVk_tad76Ts2iVwFI-2" value="Input :&lt;div&gt;&quot;Masukan ID&lt;/div&gt;&lt;div&gt;tiket yang ingin&lt;/div&gt;&lt;div&gt;dipesan dari daftar&lt;/div&gt;&lt;div&gt;di atas&quot;&lt;/div&gt;" style="shape=parallelogram;perimeter=parallelogramPerimeter;whiteSpace=wrap;html=1;fixedSize=1;strokeColor=default;align=center;verticalAlign=middle;fontFamily=Helvetica;fontSize=12;fontColor=default;fillColor=default;" vertex="1" parent="1">
          <mxGeometry x="1535" y="780" width="130" height="80" as="geometry" />
        </mxCell>
        <mxCell id="i-6vhPLyQVeAukrLRskC-1" style="edgeStyle=orthogonalEdgeStyle;rounded=0;orthogonalLoop=1;jettySize=auto;html=1;fontFamily=Helvetica;fontSize=12;fontColor=default;" edge="1" parent="1" source="55cTVk_tad76Ts2iVwFI-4" target="i-6vhPLyQVeAukrLRskC-2">
          <mxGeometry relative="1" as="geometry">
            <mxPoint x="1600" y="1040" as="targetPoint" />
          </mxGeometry>
        </mxCell>
        <mxCell id="55cTVk_tad76Ts2iVwFI-4" value="Pesan tiket&amp;nbsp;&lt;div&gt;(nama tiket) seharga&lt;/div&gt;&lt;div&gt;(harga tiket) Y/N&lt;/div&gt;" style="shape=parallelogram;perimeter=parallelogramPerimeter;whiteSpace=wrap;html=1;fixedSize=1;strokeColor=default;align=center;verticalAlign=middle;fontFamily=Helvetica;fontSize=12;fontColor=default;fillColor=default;" vertex="1" parent="1">
          <mxGeometry x="1530" y="902" width="140" height="78" as="geometry" />
        </mxCell>
        <mxCell id="i-6vhPLyQVeAukrLRskC-3" style="edgeStyle=orthogonalEdgeStyle;rounded=0;orthogonalLoop=1;jettySize=auto;html=1;fontFamily=Helvetica;fontSize=12;fontColor=default;" edge="1" parent="1" source="i-6vhPLyQVeAukrLRskC-2" target="i-6vhPLyQVeAukrLRskC-4">
          <mxGeometry relative="1" as="geometry">
            <mxPoint x="1600" y="1120" as="targetPoint" />
          </mxGeometry>
        </mxCell>
        <mxCell id="i-6vhPLyQVeAukrLRskC-2" value="Input :&lt;div&gt;&quot;Pesan Tiket&amp;nbsp;&lt;/div&gt;&lt;div&gt;Y/N&quot;&lt;/div&gt;" style="shape=parallelogram;perimeter=parallelogramPerimeter;whiteSpace=wrap;html=1;fixedSize=1;strokeColor=default;align=center;verticalAlign=middle;fontFamily=Helvetica;fontSize=12;fontColor=default;fillColor=default;" vertex="1" parent="1">
          <mxGeometry x="1540" y="1010" width="120" height="60" as="geometry" />
        </mxCell>
        <mxCell id="_rwanHHrf2sHf8RnHG-R-1" style="edgeStyle=orthogonalEdgeStyle;rounded=0;orthogonalLoop=1;jettySize=auto;html=1;fontFamily=Helvetica;fontSize=12;fontColor=default;" edge="1" parent="1" source="i-6vhPLyQVeAukrLRskC-4" target="_rwanHHrf2sHf8RnHG-R-2">
          <mxGeometry relative="1" as="geometry">
            <mxPoint x="1740" y="1140" as="targetPoint" />
          </mxGeometry>
        </mxCell>
        <mxCell id="eLvQiqAW3-jzLCZy_Iaf-1" style="edgeStyle=orthogonalEdgeStyle;rounded=0;orthogonalLoop=1;jettySize=auto;html=1;fontFamily=Helvetica;fontSize=12;fontColor=default;" edge="1" parent="1" source="i-6vhPLyQVeAukrLRskC-4" target="eLvQiqAW3-jzLCZy_Iaf-2">
          <mxGeometry relative="1" as="geometry">
            <mxPoint x="1600" y="1250" as="targetPoint" />
          </mxGeometry>
        </mxCell>
        <mxCell id="i-6vhPLyQVeAukrLRskC-4" value="IF = Y" style="rhombus;whiteSpace=wrap;html=1;strokeColor=default;align=center;verticalAlign=middle;fontFamily=Helvetica;fontSize=12;fontColor=default;fillColor=default;" vertex="1" parent="1">
          <mxGeometry x="1560" y="1100" width="80" height="80" as="geometry" />
        </mxCell>
        <mxCell id="VTrdACGlTEbYl6ObipoA-3" style="edgeStyle=orthogonalEdgeStyle;rounded=0;orthogonalLoop=1;jettySize=auto;html=1;fontFamily=Helvetica;fontSize=12;fontColor=default;" edge="1" parent="1" source="_rwanHHrf2sHf8RnHG-R-2" target="VTrdACGlTEbYl6ObipoA-4">
          <mxGeometry relative="1" as="geometry">
            <mxPoint x="1740" y="1240.0000000000002" as="targetPoint" />
          </mxGeometry>
        </mxCell>
        <mxCell id="_rwanHHrf2sHf8RnHG-R-2" value="IF = N" style="rhombus;whiteSpace=wrap;html=1;strokeColor=default;align=center;verticalAlign=middle;fontFamily=Helvetica;fontSize=12;fontColor=default;fillColor=default;" vertex="1" parent="1">
          <mxGeometry x="1700" y="1100" width="80" height="80" as="geometry" />
        </mxCell>
        <mxCell id="eLvQiqAW3-jzLCZy_Iaf-4" style="edgeStyle=orthogonalEdgeStyle;rounded=0;orthogonalLoop=1;jettySize=auto;html=1;fontFamily=Helvetica;fontSize=12;fontColor=default;" edge="1" parent="1" source="eLvQiqAW3-jzLCZy_Iaf-2" target="eLvQiqAW3-jzLCZy_Iaf-5">
          <mxGeometry relative="1" as="geometry">
            <mxPoint x="1600" y="1350" as="targetPoint" />
          </mxGeometry>
        </mxCell>
        <mxCell id="eLvQiqAW3-jzLCZy_Iaf-2" value="Output :&lt;div&gt;&quot;Tiket (nama tiket)&lt;/div&gt;&lt;div&gt;berhasil di pesan&quot;&lt;/div&gt;" style="shape=parallelogram;perimeter=parallelogramPerimeter;whiteSpace=wrap;html=1;fixedSize=1;strokeColor=default;align=center;verticalAlign=middle;fontFamily=Helvetica;fontSize=12;fontColor=default;fillColor=default;" vertex="1" parent="1">
          <mxGeometry x="1535" y="1220" width="130" height="80" as="geometry" />
        </mxCell>
        <mxCell id="VTrdACGlTEbYl6ObipoA-2" style="edgeStyle=orthogonalEdgeStyle;rounded=0;orthogonalLoop=1;jettySize=auto;html=1;entryX=0.5;entryY=0;entryDx=0;entryDy=0;fontFamily=Helvetica;fontSize=12;fontColor=default;" edge="1" parent="1" source="eLvQiqAW3-jzLCZy_Iaf-5" target="VTrdACGlTEbYl6ObipoA-1">
          <mxGeometry relative="1" as="geometry" />
        </mxCell>
        <mxCell id="eLvQiqAW3-jzLCZy_Iaf-5" value="Input :&lt;div&gt;&quot;tekan tombol&lt;/div&gt;&lt;div&gt;apapun untuk&amp;nbsp;&lt;/div&gt;&lt;div&gt;melanjutkan&quot;&lt;/div&gt;" style="shape=parallelogram;perimeter=parallelogramPerimeter;whiteSpace=wrap;html=1;fixedSize=1;strokeColor=default;align=center;verticalAlign=middle;fontFamily=Helvetica;fontSize=12;fontColor=default;fillColor=default;" vertex="1" parent="1">
          <mxGeometry x="1540" y="1340" width="120" height="70" as="geometry" />
        </mxCell>
        <mxCell id="WKa2GtOvP1qAGohvCVMn-13" style="edgeStyle=orthogonalEdgeStyle;rounded=0;orthogonalLoop=1;jettySize=auto;html=1;fontFamily=Helvetica;fontSize=12;fontColor=default;entryX=1;entryY=0.25;entryDx=0;entryDy=0;" edge="1" parent="1" source="VTrdACGlTEbYl6ObipoA-1" target="ih4TXm6Po24zARIEFaUi-3">
          <mxGeometry relative="1" as="geometry">
            <mxPoint x="1270" y="404.2857142857143" as="targetPoint" />
            <Array as="points">
              <mxPoint x="1600" y="1550" />
              <mxPoint x="2560" y="1550" />
              <mxPoint x="2560" y="427" />
            </Array>
          </mxGeometry>
        </mxCell>
        <mxCell id="VTrdACGlTEbYl6ObipoA-1" value="Input :&lt;div&gt;&quot;Tekan tombol&lt;/div&gt;&lt;div&gt;apapun untuk&amp;nbsp;&lt;/div&gt;&lt;div&gt;kembali ke menu&lt;/div&gt;&lt;div&gt;user&quot;&lt;/div&gt;" style="shape=parallelogram;perimeter=parallelogramPerimeter;whiteSpace=wrap;html=1;fixedSize=1;strokeColor=default;align=center;verticalAlign=middle;fontFamily=Helvetica;fontSize=12;fontColor=default;fillColor=default;" vertex="1" parent="1">
          <mxGeometry x="1535" y="1450" width="130" height="80" as="geometry" />
        </mxCell>
        <mxCell id="VTrdACGlTEbYl6ObipoA-8" style="edgeStyle=orthogonalEdgeStyle;rounded=0;orthogonalLoop=1;jettySize=auto;html=1;entryX=0.5;entryY=0;entryDx=0;entryDy=0;fontFamily=Helvetica;fontSize=12;fontColor=default;" edge="1" parent="1" source="VTrdACGlTEbYl6ObipoA-4" target="VTrdACGlTEbYl6ObipoA-6">
          <mxGeometry relative="1" as="geometry" />
        </mxCell>
        <mxCell id="VTrdACGlTEbYl6ObipoA-4" value="Input :&lt;div&gt;&quot;pesanan&amp;nbsp;&lt;/div&gt;&lt;div&gt;dibatalkan&quot;&lt;/div&gt;" style="shape=parallelogram;perimeter=parallelogramPerimeter;whiteSpace=wrap;html=1;fixedSize=1;strokeColor=default;align=center;verticalAlign=middle;fontFamily=Helvetica;fontSize=12;fontColor=default;fillColor=default;" vertex="1" parent="1">
          <mxGeometry x="1680" y="1220.0000000000002" width="120" height="60" as="geometry" />
        </mxCell>
        <mxCell id="VTrdACGlTEbYl6ObipoA-5" style="edgeStyle=orthogonalEdgeStyle;rounded=0;orthogonalLoop=1;jettySize=auto;html=1;entryX=0.5;entryY=0;entryDx=0;entryDy=0;fontFamily=Helvetica;fontSize=12;fontColor=default;" edge="1" parent="1" source="VTrdACGlTEbYl6ObipoA-6" target="VTrdACGlTEbYl6ObipoA-7">
          <mxGeometry relative="1" as="geometry" />
        </mxCell>
        <mxCell id="VTrdACGlTEbYl6ObipoA-6" value="Input :&lt;div&gt;&quot;tekan tombol&lt;/div&gt;&lt;div&gt;apapun untuk&amp;nbsp;&lt;/div&gt;&lt;div&gt;melanjutkan&quot;&lt;/div&gt;" style="shape=parallelogram;perimeter=parallelogramPerimeter;whiteSpace=wrap;html=1;fixedSize=1;strokeColor=default;align=center;verticalAlign=middle;fontFamily=Helvetica;fontSize=12;fontColor=default;fillColor=default;" vertex="1" parent="1">
          <mxGeometry x="1680" y="1323" width="120" height="70" as="geometry" />
        </mxCell>
        <mxCell id="WKa2GtOvP1qAGohvCVMn-12" style="edgeStyle=orthogonalEdgeStyle;rounded=0;orthogonalLoop=1;jettySize=auto;html=1;fontFamily=Helvetica;fontSize=12;fontColor=default;entryX=1;entryY=0.5;entryDx=0;entryDy=0;" edge="1" parent="1" source="VTrdACGlTEbYl6ObipoA-7" target="ih4TXm6Po24zARIEFaUi-3">
          <mxGeometry relative="1" as="geometry">
            <mxPoint x="1010" y="430" as="targetPoint" />
            <Array as="points">
              <mxPoint x="2530" y="1473" />
              <mxPoint x="2530" y="450" />
            </Array>
          </mxGeometry>
        </mxCell>
        <mxCell id="VTrdACGlTEbYl6ObipoA-7" value="Input :&lt;div&gt;&quot;Tekan tombol&lt;/div&gt;&lt;div&gt;apapun untuk&amp;nbsp;&lt;/div&gt;&lt;div&gt;kembali ke menu&lt;/div&gt;&lt;div&gt;user&quot;&lt;/div&gt;" style="shape=parallelogram;perimeter=parallelogramPerimeter;whiteSpace=wrap;html=1;fixedSize=1;strokeColor=default;align=center;verticalAlign=middle;fontFamily=Helvetica;fontSize=12;fontColor=default;fillColor=default;" vertex="1" parent="1">
          <mxGeometry x="1675" y="1433" width="130" height="80" as="geometry" />
        </mxCell>
        <mxCell id="VTrdACGlTEbYl6ObipoA-11" style="edgeStyle=orthogonalEdgeStyle;rounded=0;orthogonalLoop=1;jettySize=auto;html=1;fontFamily=Helvetica;fontSize=12;fontColor=default;" edge="1" parent="1" source="VTrdACGlTEbYl6ObipoA-10" target="VTrdACGlTEbYl6ObipoA-12">
          <mxGeometry relative="1" as="geometry">
            <mxPoint x="2040" y="800" as="targetPoint" />
          </mxGeometry>
        </mxCell>
        <mxCell id="VTrdACGlTEbYl6ObipoA-15" style="edgeStyle=orthogonalEdgeStyle;rounded=0;orthogonalLoop=1;jettySize=auto;html=1;fontFamily=Helvetica;fontSize=12;fontColor=default;" edge="1" parent="1" source="VTrdACGlTEbYl6ObipoA-10" target="VTrdACGlTEbYl6ObipoA-16">
          <mxGeometry relative="1" as="geometry">
            <mxPoint x="2240" y="690" as="targetPoint" />
          </mxGeometry>
        </mxCell>
        <mxCell id="VTrdACGlTEbYl6ObipoA-10" value="IF = 3" style="rhombus;whiteSpace=wrap;html=1;strokeColor=default;align=center;verticalAlign=middle;fontFamily=Helvetica;fontSize=12;fontColor=default;fillColor=default;" vertex="1" parent="1">
          <mxGeometry x="2000" y="650" width="80" height="80" as="geometry" />
        </mxCell>
        <mxCell id="VTrdACGlTEbYl6ObipoA-14" style="edgeStyle=orthogonalEdgeStyle;rounded=0;orthogonalLoop=1;jettySize=auto;html=1;entryX=0.5;entryY=0;entryDx=0;entryDy=0;fontFamily=Helvetica;fontSize=12;fontColor=default;" edge="1" parent="1" source="VTrdACGlTEbYl6ObipoA-12" target="VTrdACGlTEbYl6ObipoA-13">
          <mxGeometry relative="1" as="geometry" />
        </mxCell>
        <mxCell id="VTrdACGlTEbYl6ObipoA-12" value="Ouput :&lt;div&gt;&quot;menampilkan&lt;/div&gt;&lt;div&gt;riwayat pemesanan&lt;/div&gt;&lt;div&gt;anda&quot;&lt;/div&gt;" style="shape=parallelogram;perimeter=parallelogramPerimeter;whiteSpace=wrap;html=1;fixedSize=1;strokeColor=default;align=center;verticalAlign=middle;fontFamily=Helvetica;fontSize=12;fontColor=default;fillColor=default;" vertex="1" parent="1">
          <mxGeometry x="1975" y="772" width="130" height="70" as="geometry" />
        </mxCell>
        <mxCell id="WKa2GtOvP1qAGohvCVMn-11" style="edgeStyle=orthogonalEdgeStyle;rounded=0;orthogonalLoop=1;jettySize=auto;html=1;fontFamily=Helvetica;fontSize=12;fontColor=default;entryX=1;entryY=0.75;entryDx=0;entryDy=0;" edge="1" parent="1" source="VTrdACGlTEbYl6ObipoA-13" target="ih4TXm6Po24zARIEFaUi-3">
          <mxGeometry relative="1" as="geometry">
            <mxPoint x="1410" y="466" as="targetPoint" />
            <Array as="points">
              <mxPoint x="2040" y="970" />
              <mxPoint x="2520" y="970" />
              <mxPoint x="2520" y="471" />
            </Array>
          </mxGeometry>
        </mxCell>
        <mxCell id="VTrdACGlTEbYl6ObipoA-13" value="Input :&lt;div&gt;&quot;Tekan tombol&lt;/div&gt;&lt;div&gt;apapun untuk&amp;nbsp;&lt;/div&gt;&lt;div&gt;kembali ke menu&lt;/div&gt;&lt;div&gt;user&quot;&lt;/div&gt;" style="shape=parallelogram;perimeter=parallelogramPerimeter;whiteSpace=wrap;html=1;fixedSize=1;strokeColor=default;align=center;verticalAlign=middle;fontFamily=Helvetica;fontSize=12;fontColor=default;fillColor=default;" vertex="1" parent="1">
          <mxGeometry x="1975" y="880" width="130" height="80" as="geometry" />
        </mxCell>
        <mxCell id="VTrdACGlTEbYl6ObipoA-17" style="edgeStyle=orthogonalEdgeStyle;rounded=0;orthogonalLoop=1;jettySize=auto;html=1;fontFamily=Helvetica;fontSize=12;fontColor=default;" edge="1" parent="1" source="VTrdACGlTEbYl6ObipoA-16" target="VTrdACGlTEbYl6ObipoA-18">
          <mxGeometry relative="1" as="geometry">
            <mxPoint x="2240" y="800" as="targetPoint" />
          </mxGeometry>
        </mxCell>
        <mxCell id="WslPevbhcuHRcwLzLrT4-4" style="edgeStyle=orthogonalEdgeStyle;rounded=0;orthogonalLoop=1;jettySize=auto;html=1;fontFamily=Helvetica;fontSize=12;fontColor=default;" edge="1" parent="1" source="VTrdACGlTEbYl6ObipoA-16" target="WslPevbhcuHRcwLzLrT4-2">
          <mxGeometry relative="1" as="geometry" />
        </mxCell>
        <mxCell id="VTrdACGlTEbYl6ObipoA-16" value="IF = 0" style="rhombus;whiteSpace=wrap;html=1;strokeColor=default;align=center;verticalAlign=middle;fontFamily=Helvetica;fontSize=12;fontColor=default;fillColor=default;" vertex="1" parent="1">
          <mxGeometry x="2200" y="650" width="80" height="80" as="geometry" />
        </mxCell>
        <mxCell id="VTrdACGlTEbYl6ObipoA-18" value="Ouput :&lt;div&gt;&quot;kembali kemenu&lt;/div&gt;&lt;div&gt;utama&quot;&lt;/div&gt;" style="shape=parallelogram;perimeter=parallelogramPerimeter;whiteSpace=wrap;html=1;fixedSize=1;strokeColor=default;align=center;verticalAlign=middle;fontFamily=Helvetica;fontSize=12;fontColor=default;fillColor=default;" vertex="1" parent="1">
          <mxGeometry x="2180" y="770" width="120" height="60" as="geometry" />
        </mxCell>
        <mxCell id="WslPevbhcuHRcwLzLrT4-1" style="edgeStyle=orthogonalEdgeStyle;rounded=0;orthogonalLoop=1;jettySize=auto;html=1;entryX=0.5;entryY=0;entryDx=0;entryDy=0;fontFamily=Helvetica;fontSize=12;fontColor=default;" edge="1" parent="1" source="WslPevbhcuHRcwLzLrT4-2" target="WslPevbhcuHRcwLzLrT4-3">
          <mxGeometry relative="1" as="geometry" />
        </mxCell>
        <mxCell id="WslPevbhcuHRcwLzLrT4-2" value="Output :&lt;div&gt;&quot;Pilihan tidak&lt;/div&gt;&lt;div&gt;valid. Silahkan&lt;/div&gt;&lt;div&gt;coba lagi&quot;&lt;/div&gt;" style="shape=parallelogram;perimeter=parallelogramPerimeter;whiteSpace=wrap;html=1;fixedSize=1;strokeColor=default;align=center;verticalAlign=middle;fontFamily=Helvetica;fontSize=12;fontColor=default;fillColor=default;" vertex="1" parent="1">
          <mxGeometry x="2355" y="770" width="120" height="60" as="geometry" />
        </mxCell>
        <mxCell id="WKa2GtOvP1qAGohvCVMn-9" style="edgeStyle=orthogonalEdgeStyle;rounded=0;orthogonalLoop=1;jettySize=auto;html=1;fontFamily=Helvetica;fontSize=12;fontColor=default;entryX=1;entryY=1;entryDx=0;entryDy=0;" edge="1" parent="1" source="WslPevbhcuHRcwLzLrT4-3" target="ih4TXm6Po24zARIEFaUi-3">
          <mxGeometry relative="1" as="geometry">
            <mxPoint x="840" y="560" as="targetPoint" />
            <Array as="points">
              <mxPoint x="2490" y="913" />
              <mxPoint x="2490" y="489" />
            </Array>
          </mxGeometry>
        </mxCell>
        <mxCell id="WslPevbhcuHRcwLzLrT4-3" value="Input :&lt;div&gt;&quot;Tekan tombol&lt;/div&gt;&lt;div&gt;apapun untuk&amp;nbsp;&lt;/div&gt;&lt;div&gt;kembali ke menu&lt;/div&gt;&lt;div&gt;user&quot;&lt;/div&gt;" style="shape=parallelogram;perimeter=parallelogramPerimeter;whiteSpace=wrap;html=1;fixedSize=1;strokeColor=default;align=center;verticalAlign=middle;fontFamily=Helvetica;fontSize=12;fontColor=default;fillColor=default;" vertex="1" parent="1">
          <mxGeometry x="2350" y="873" width="130" height="80" as="geometry" />
        </mxCell>
        <mxCell id="WslPevbhcuHRcwLzLrT4-5" value="False" style="text;html=1;align=center;verticalAlign=middle;whiteSpace=wrap;rounded=0;fontFamily=Helvetica;fontSize=12;fontColor=default;" vertex="1" parent="1">
          <mxGeometry x="2320" y="660" width="60" height="30" as="geometry" />
        </mxCell>
        <mxCell id="wRPDXvAY8BZqG76saQFm-2" style="edgeStyle=orthogonalEdgeStyle;rounded=0;orthogonalLoop=1;jettySize=auto;html=1;entryX=0.5;entryY=0;entryDx=0;entryDy=0;fontFamily=Helvetica;fontSize=12;fontColor=default;" edge="1" parent="1" source="VTrdACGlTEbYl6ObipoA-18" target="wRPDXvAY8BZqG76saQFm-3">
          <mxGeometry relative="1" as="geometry">
            <mxPoint x="2240" y="859.99" as="targetPoint" />
          </mxGeometry>
        </mxCell>
        <mxCell id="wRPDXvAY8BZqG76saQFm-3" value="Return" style="rounded=1;whiteSpace=wrap;html=1;strokeColor=default;align=center;verticalAlign=middle;fontFamily=Helvetica;fontSize=12;fontColor=default;fillColor=default;arcSize=50;" vertex="1" parent="1">
          <mxGeometry x="2180" y="869" width="120" height="30" as="geometry" />
        </mxCell>
      </root>
    </mxGraphModel>
  </diagram>
</mxfile>
